<?xml version="1.0" encoding="iso-8859-1"?>
<!-- Generator: Adobe Illustrator 19.0.0, SVG Export Plug-In . SVG Version: 6.00 Build 0)  -->
<svg version="1.1" id="Capa_1" xmlns="http://www.w3.org/2000/svg" xmlns:xlink="http://www.w3.org/1999/xlink" x="0px" y="0px"
	 viewBox="0 0 512.001 512.001" style="enable-background:new 0 0 512.001 512.001;" xml:space="preserve">
<path style="fill:#4D94AE;" d="M482.921,173.087l27.298,42.355c5.698,8.842-3.245,19.811-13.053,16.009l-59.186-22.939
	L482.921,173.087z"/>
<path style="opacity:0.15;enable-background:new    ;" d="M482.921,173.087l27.298,42.355c5.698,8.842-3.245,19.811-13.053,16.009
	l-59.186-22.939L482.921,173.087z"/>
<path style="fill:#4D94AE;" d="M332.995,426.593l150.749-248.862c1.829-3.02-0.345-6.879-3.876-6.879H453.38
	c-6.406,0-12.5,2.768-16.715,7.592L306.759,327.135L332.995,426.593z"/>
<polygon style="opacity:0.15;enable-background:new    ;" points="306.759,327.135 332.995,426.593 369.368,366.547 
	369.368,255.473 "/>
<path style="fill:#4D94AE;" d="M112.916,426.593L2.075,243.612c-7.953-13.129,8.714-27.219,20.336-17.192l116.742,100.715
	L112.916,426.593z"/>
<polygon style="opacity:0.15;enable-background:new    ;" points="76.544,273.121 76.544,366.547 112.916,426.593 139.152,327.135 
	"/>
<path style="fill:#51B4DB;" d="M208.455,73.808l-85.414,149.649c-6.635,11.626-10.125,24.78-10.125,38.166v171.323
	c0,9.613,9.669,16.216,18.623,12.717l78.418-30.642c8.358-3.266,17.64-3.266,25.998,0l78.418,30.642
	c8.953,3.499,18.623-3.104,18.623-12.717V261.624c0-13.386-3.49-26.541-10.125-38.166l-85.415-149.65
	C231.049,62.582,214.863,62.582,208.455,73.808z"/>
<path style="opacity:0.1;enable-background:new    ;" d="M208.455,73.808l-85.414,149.649c-6.635,11.626-10.125,24.78-10.125,38.166
	v171.323c0,9.613,9.669,16.216,18.623,12.717l78.418-30.642c4.179-1.633,8.589-2.449,12.999-2.449V65.388
	C217.307,65.388,211.659,68.195,208.455,73.808z"/>
<path style="opacity:0.1;enable-background:new    ;" d="M322.87,223.458l-85.414-149.65c-6.408-11.226-22.593-11.226-29.001,0
	l-85.414,149.649c-4.826,8.456-7.979,17.722-9.344,27.296l93.502,106.492c8.351,9.512,23.162,9.512,31.513,0l93.502-106.492
	C330.849,241.18,327.696,231.913,322.87,223.458z"/>
<g>
</g>
<g>
</g>
<g>
</g>
<g>
</g>
<g>
</g>
<g>
</g>
<g>
</g>
<g>
</g>
<g>
</g>
<g>
</g>
<g>
</g>
<g>
</g>
<g>
</g>
<g>
</g>
<g>
</g>
</svg>
