<svg xmlns="http://www.w3.org/2000/svg"  viewBox="0 0 100 100" width="100px" height="100px"><path fill="#f1bc19" d="M78 13A1 1 0 1 0 78 15A1 1 0 1 0 78 13Z"/><path fill="#f9dbd2" d="M50 12A38 38 0 1 0 50 88A38 38 0 1 0 50 12Z"/><path fill="#f1bc19" d="M84 12A4 4 0 1 0 84 20A4 4 0 1 0 84 12Z"/><path fill="#ee3e54" d="M14 24A2 2 0 1 0 14 28A2 2 0 1 0 14 24Z"/><path fill="#fbcd59" d="M78 75A2 2 0 1 0 78 79 2 2 0 1 0 78 75zM17 74A4 4 0 1 0 17 82 4 4 0 1 0 17 74z"/><path fill="#ee3e54" d="M24 81A2 2 0 1 0 24 85A2 2 0 1 0 24 81Z"/><path fill="#fff" d="M66.483 76.03399999999999A2.483 2.483 0 1 0 66.483 81 2.483 2.483 0 1 0 66.483 76.03399999999999zM16 47A1 1 0 1 0 16 49 1 1 0 1 0 16 47z"/><path fill="#f1bc19" d="M86 30A1 1 0 1 0 86 32A1 1 0 1 0 86 30Z"/><path fill="#fff" d="M80 64A2 2 0 1 0 80 68A2 2 0 1 0 80 64Z"/><g><path fill="#fdfcee" d="M50 25.75A24.25 24.25 0 1 0 50 74.25A24.25 24.25 0 1 0 50 25.75Z"/><path fill="#472b29" d="M50,74.95c-13.758,0-24.95-11.192-24.95-24.95S36.242,25.05,50,25.05S74.95,36.242,74.95,50 S63.758,74.95,50,74.95z M50,26.45c-12.985,0-23.55,10.564-23.55,23.55S37.015,73.55,50,73.55S73.55,62.985,73.55,50 S62.985,26.45,50,26.45z"/></g><g><path fill="#f1bc19" d="M49.999 30.459A19.541 19.541 0 1 0 49.999 69.541A19.541 19.541 0 1 0 49.999 30.459Z"/></g><g opacity=".79"><path fill="#fbcd59" d="M50.025,33.022c8.842,0,16.351,5.688,19.191,13.633c-1.583-9.272-9.563-16.331-19.191-16.331 c-6.202,0-11.719,2.929-15.284,7.491c-1.97,2.521-3.343,5.54-3.907,8.84C33.674,38.711,41.182,33.022,50.025,33.022z"/></g><g><path fill="#ee3e54" d="M49.824 51.768A11.368 5.88 0 1 0 49.824 63.528000000000006A11.368 5.88 0 1 0 49.824 51.768Z"/><path fill="#472b29" d="M49.824,64c-6.63,0-11.823-2.79-11.823-6.351c0-3.561,5.193-6.351,11.823-6.351 s11.823,2.79,11.823,6.351C61.647,61.21,56.454,64,49.824,64z M49.824,52.239c-5.916,0-10.913,2.477-10.913,5.41 c0,2.933,4.997,5.41,10.913,5.41s10.913-2.477,10.913-5.41C60.737,54.716,55.74,52.239,49.824,52.239z"/><g><path fill="#961b30" d="M49.824,51.768c-6.279,0-11.368,2.633-11.368,5.88c0,1.391,0.939,2.667,2.5,3.673 c0.908-2.1,4.531-3.673,8.868-3.673s7.959,1.572,8.868,3.673c1.561-1.006,2.5-2.282,2.5-3.673 C61.192,54.401,56.103,51.768,49.824,51.768z"/><path fill="#472b29" d="M41.158,62.007l-0.443-0.285C38.939,60.576,38,59.169,38,57.649c0-3.561,5.193-6.351,11.823-6.351 s11.823,2.79,11.823,6.351c0,1.519-0.939,2.927-2.715,4.073l-0.443,0.285l-0.214-0.493c-0.851-1.966-4.406-3.394-8.453-3.394 c-4.048,0-7.603,1.428-8.453,3.394L41.158,62.007z M49.824,57.178c4.144,0,7.734,1.403,9.027,3.469 c1.22-0.896,1.885-1.948,1.885-2.999c0-2.932-4.997-5.41-10.913-5.41s-10.913,2.477-10.913,5.41c0,1.051,0.665,2.103,1.885,2.999 C42.089,58.581,45.679,57.178,49.824,57.178z"/></g></g><g><path fill="#684933" d="M46.351,45.619c-0.551-1.854-2.186-3.099-4.07-3.099c-1.884,0-3.518,1.244-4.069,3.099 l-1.092-0.366c0.7-2.362,2.774-3.949,5.161-3.949c2.386,0,4.461,1.587,5.162,3.949L46.351,45.619z"/><path fill="#472b29" d="M38.399,46l-1.639-0.549l0.086-0.289C37.584,42.672,39.768,41,42.28,41 c2.512,0,4.696,1.672,5.435,4.162l0.086,0.289L46.163,46l-0.086-0.289c-0.513-1.726-2.04-2.886-3.796-2.886 c-1.758,0-3.283,1.16-3.795,2.886L38.399,46z M42.282,42.216c1.91,0,3.582,1.203,4.248,3.024l0.548-0.182 c-0.74-2.075-2.633-3.449-4.796-3.449c-2.164,0-4.054,1.374-4.795,3.449l0.548,0.182C38.699,43.419,40.371,42.216,42.282,42.216z"/><g><path fill="#684933" d="M61.246,45.619c-0.551-1.854-2.186-3.099-4.07-3.099c-1.884,0-3.518,1.244-4.069,3.099 l-1.092-0.366c0.7-2.362,2.774-3.949,5.161-3.949c2.386,0,4.461,1.587,5.162,3.949L61.246,45.619z"/><path fill="#472b29" d="M53.294,46l-1.639-0.549l0.086-0.289C52.479,42.672,54.663,41,57.175,41 c2.512,0,4.696,1.672,5.435,4.162l0.086,0.289L61.058,46l-0.086-0.289c-0.513-1.726-2.04-2.886-3.796-2.886 c-1.758,0-3.283,1.16-3.795,2.886L53.294,46z M57.176,42.216c1.91,0,3.582,1.203,4.248,3.024l0.548-0.182 c-0.74-2.075-2.633-3.449-4.796-3.449c-2.164,0-4.054,1.374-4.795,3.449l0.548,0.182C53.594,43.419,55.266,42.216,57.176,42.216z"/></g></g><g><path fill="#472b29" d="M50,70c-11.028,0-20-8.972-20-20c0-3.746,1.043-7.4,3.016-10.567 c0.148-0.234,0.458-0.302,0.689-0.16c0.234,0.146,0.306,0.455,0.16,0.689C31.99,42.97,31,46.44,31,50c0,10.477,8.523,19,19,19 c3.936,0,7.71-1.192,10.916-3.447c0.227-0.16,0.538-0.103,0.697,0.121c0.158,0.227,0.104,0.538-0.121,0.697 C58.116,68.745,54.143,70,50,70z"/></g><g><path fill="#472b29" d="M64.338,63.716c-0.121,0-0.243-0.044-0.339-0.133c-0.203-0.187-0.216-0.503-0.028-0.706 C67.214,59.36,69,54.787,69,50c0-10.477-8.523-19-19-19c-2.809,0-5.515,0.599-8.041,1.78c-0.248,0.117-0.548,0.01-0.665-0.241 c-0.117-0.25-0.009-0.548,0.241-0.665C44.195,30.631,47.044,30,50,30c11.028,0,20,8.972,20,20c0,5.04-1.88,9.854-5.295,13.555 C64.606,63.662,64.473,63.716,64.338,63.716z"/></g><g><path fill="#472b29" d="M35.556,37.399c-0.12,0-0.24-0.043-0.336-0.13c-0.204-0.186-0.22-0.502-0.034-0.706 c0.984-1.085,2.09-2.063,3.285-2.908c0.224-0.16,0.536-0.107,0.697,0.119c0.159,0.226,0.105,0.538-0.119,0.697 c-1.137,0.804-2.188,1.733-3.123,2.764C35.827,37.344,35.691,37.399,35.556,37.399z"/></g><g><path fill="#64a3e2" d="M67.85,40.743c0,0-3.03,4.309-3.043,5.964c-0.012,1.652,1.317,3.005,2.97,3.019 c1.654,0.012,3.005-1.317,3.019-2.97C70.81,45.103,67.85,40.743,67.85,40.743z"/><path fill="#472b29" d="M67.798,50c-0.008,0-0.015,0-0.023,0c-1.8-0.015-3.253-1.492-3.24-3.295 c0.015-1.719,2.967-5.939,3.093-6.118l0.227-0.323l0.221,0.326c0.122,0.181,3.008,4.45,2.991,6.168 C71.054,48.551,69.589,50,67.798,50z M67.846,41.23c-0.938,1.382-2.756,4.299-2.766,5.48c-0.012,1.501,1.199,2.732,2.699,2.745 c0.007,0,0.013,0,0.021,0c1.491,0,2.711-1.207,2.723-2.7C70.533,45.573,68.762,42.626,67.846,41.23z"/></g></svg>