<svg xmlns="http://www.w3.org/2000/svg"  viewBox="0 0 100 100" width="100px" height="100px"><path fill="#f1bc19" d="M78 13A1 1 0 1 0 78 15A1 1 0 1 0 78 13Z"/><path fill="#f9dbd2" d="M50 12A38 38 0 1 0 50 88A38 38 0 1 0 50 12Z"/><path fill="#f1bc19" d="M84 12A4 4 0 1 0 84 20A4 4 0 1 0 84 12Z"/><path fill="#ee3e54" d="M14 24A2 2 0 1 0 14 28A2 2 0 1 0 14 24Z"/><path fill="#fbcd59" d="M78 75A2 2 0 1 0 78 79 2 2 0 1 0 78 75zM17 74A4 4 0 1 0 17 82 4 4 0 1 0 17 74z"/><path fill="#ee3e54" d="M24 81A2 2 0 1 0 24 85A2 2 0 1 0 24 81Z"/><path fill="#fff" d="M66.483 76.03399999999999A2.483 2.483 0 1 0 66.483 81 2.483 2.483 0 1 0 66.483 76.03399999999999zM16 47A1 1 0 1 0 16 49 1 1 0 1 0 16 47z"/><path fill="#f1bc19" d="M86 30A1 1 0 1 0 86 32A1 1 0 1 0 86 30Z"/><path fill="#fff" d="M80 64A2 2 0 1 0 80 68A2 2 0 1 0 80 64Z"/><g><path fill="#60be92" d="M47.7 77.3L47.7 34.517 40.183 42.535 36.192 38.279 50.493 23.021 64.793 38.279 60.803 42.535 53.3 34.531 53.3 77.3z"/><path fill="#472b29" d="M50.507,24.061l3.046,3.249l-0.002,0.002l0.87,0.928l9.413,10.04l-3.031,3.233l-5.782-6.168 L52.6,32.761v3.541V76.6h-4.2V36.287v-3.541l-2.421,2.583l-5.796,6.183l-3.031-3.233l9.413-10.04l0.868-0.93h0l3.023-3.225 l0.014,0.017L50.507,24.061 M50.495,22l-0.002,0.002L50.491,22l-4.95,5.28l0.002,0.002l-10.31,10.998l4.95,5.28L47,36.287V78h7 V36.302l6.803,7.257l4.95-5.28l-10.31-10.998l0.002-0.002L50.495,22L50.495,22z"/></g><g><path fill="#472b29" d="M57.5,78c-0.276,0-0.5-0.224-0.5-0.5v-25c0-0.276,0.224-0.5,0.5-0.5s0.5,0.224,0.5,0.5v25 C58,77.776,57.776,78,57.5,78z"/></g><g><path fill="#472b29" d="M57.5,51c-0.276,0-0.5-0.224-0.5-0.5v-1c0-0.276,0.224-0.5,0.5-0.5s0.5,0.224,0.5,0.5v1 C58,50.776,57.776,51,57.5,51z"/></g><g><path fill="#472b29" d="M57.5,48c-0.276,0-0.5-0.224-0.5-0.5v-4c0-0.276,0.224-0.5,0.5-0.5s0.5,0.224,0.5,0.5v4 C58,47.776,57.776,48,57.5,48z"/></g></svg>