<svg xmlns="http://www.w3.org/2000/svg"  viewBox="0 0 100 100" width="100px" height="100px"><circle cx="78" cy="14" r="1" fill="#f1bc19"/><circle cx="50" cy="50" r="38" fill="#f9dbd2"/><circle cx="84" cy="16" r="4" fill="#f1bc19"/><circle cx="14" cy="26" r="2" fill="#ee3e54"/><circle cx="78" cy="77" r="2" fill="#fbcd59"/><circle cx="17" cy="78" r="4" fill="#fbcd59"/><circle cx="24" cy="83" r="2" fill="#ee3e54"/><circle cx="60.483" cy="79.517" r="2.483" fill="#fff"/><circle cx="16" cy="48" r="1" fill="#fff"/><circle cx="86" cy="31" r="1" fill="#f1bc19"/><circle cx="80" cy="66" r="2" fill="#fff"/><path fill="#edf7f5" d="M69,54.585C69,65.308,60.046,74,49,74s-20-8.692-20-19.415C29,41.642,37.954,25,49,25 S69,41.642,69,54.585z"/><path fill="#472b29" d="M49,59c-3.005,0-4.734-2.311-4.807-2.408c-0.326-0.445-0.23-1.071,0.215-1.398 c0.446-0.327,1.071-0.229,1.398,0.215C45.852,55.469,47.026,57,49,57c1.972,0,3.182-1.575,3.193-1.592 c0.327-0.444,0.951-0.542,1.398-0.215c0.445,0.327,0.541,0.953,0.215,1.398C53.734,56.689,52.005,59,49,59z"/><circle cx="41" cy="49" r="2.5" fill="#1f212b"/><circle cx="41" cy="48" r="1" fill="#fff"/><circle cx="57" cy="49" r="2.5" fill="#1f212b"/><circle cx="57" cy="48" r="1" fill="#fff"/><path fill="#ff9592" d="M67.999,53.754c-0.466-0.123-0.95-0.212-1.457-0.212c-2.992,0-5.417,2.425-5.417,5.417 c0,2.721,2.037,4.809,4.621,5.359C67,62,69,58,67.999,53.754z"/><path fill="#ff9592" d="M32.409,64.292c2.575-0.109,4.466-2.666,4.466-5.333c0-2.992-2.425-5.417-5.417-5.417 c-0.468,0-0.906,0.135-1.349,0.182C29,57,31,63,32.409,64.292z"/><path fill="#472b29" d="M61.714,61.667c-0.091,0-0.179-0.05-0.223-0.137c-0.409-0.801-0.616-1.666-0.616-2.572 c0-3.124,2.542-5.666,5.667-5.666c0.64,0,1.267,0.105,1.863,0.313c0.131,0.046,0.199,0.188,0.154,0.318 c-0.046,0.132-0.188,0.195-0.318,0.154c-0.545-0.19-1.116-0.286-1.699-0.286c-2.849,0-5.167,2.317-5.167,5.166 c0,0.826,0.188,1.615,0.562,2.346c0.063,0.123,0.014,0.273-0.109,0.336C61.791,61.658,61.752,61.667,61.714,61.667z"/><g><path fill="#472b29" d="M65.479,64.521c-0.016,0-0.032-0.002-0.049-0.005c-0.948-0.188-1.839-0.622-2.577-1.255 c-0.104-0.09-0.116-0.247-0.026-0.353c0.089-0.104,0.247-0.117,0.353-0.026c0.672,0.576,1.484,0.972,2.349,1.144 c0.136,0.026,0.224,0.158,0.196,0.294C65.701,64.438,65.597,64.521,65.479,64.521z"/></g><g><path fill="#472b29" d="M29.541,54.141c-0.101,0-0.196-0.062-0.233-0.161c-0.049-0.13,0.016-0.273,0.145-0.322 c0.64-0.242,1.314-0.365,2.006-0.365c0.138,0,0.25,0.112,0.25,0.25s-0.112,0.25-0.25,0.25c-0.631,0-1.246,0.112-1.828,0.332 C29.601,54.136,29.57,54.141,29.541,54.141z"/></g><g><path fill="#472b29" d="M34.484,54.715c-0.048,0-0.097-0.014-0.14-0.043c-0.496-0.334-1.038-0.577-1.612-0.722 c-0.134-0.033-0.215-0.17-0.181-0.304c0.033-0.134,0.172-0.216,0.304-0.181c0.629,0.159,1.225,0.425,1.769,0.792 c0.114,0.077,0.145,0.232,0.067,0.347C34.644,54.676,34.564,54.715,34.484,54.715z"/></g><g><path fill="#472b29" d="M36.875,59.208c-0.138,0-0.25-0.112-0.25-0.25c0-1.056-0.316-2.07-0.915-2.936 c-0.078-0.114-0.05-0.27,0.063-0.349c0.115-0.076,0.27-0.048,0.349,0.063c0.656,0.949,1.003,2.063,1.003,3.221 C37.125,59.096,37.013,59.208,36.875,59.208z"/></g><g><path fill="#472b29" d="M32.514,64.522c-0.117,0-0.222-0.082-0.245-0.201c-0.027-0.136,0.062-0.268,0.196-0.294 c1.896-0.375,3.41-1.76,3.952-3.615c0.039-0.134,0.178-0.206,0.311-0.17c0.133,0.039,0.208,0.178,0.17,0.311 c-0.596,2.035-2.257,3.554-4.335,3.965C32.546,64.521,32.529,64.522,32.514,64.522z"/></g><g><path fill="#472b29" d="M49,26.4c4.539,0,9.261,3.383,12.956,9.282C65.49,41.324,67.6,48.391,67.6,54.585 C67.6,64.519,59.256,72.6,49,72.6s-18.6-8.082-18.6-18.015c0-6.194,2.11-13.26,5.644-18.903C39.739,29.783,44.461,26.4,49,26.4 M49,25c-11.046,0-20,16.642-20,29.585C29,65.308,37.954,74,49,74s20-8.692,20-19.415C69,41.642,60.046,25,49,25L49,25z"/></g><g><path fill="#472b29" d="M37.5,39.75c-0.038,0-0.076-0.009-0.112-0.026c-0.123-0.062-0.173-0.212-0.111-0.336 c0.616-1.23,1.263-2.36,1.921-3.358c0.078-0.116,0.234-0.145,0.347-0.071c0.115,0.076,0.147,0.231,0.071,0.347 c-0.648,0.981-1.284,2.094-1.892,3.308C37.68,39.699,37.592,39.75,37.5,39.75z"/></g><g><path fill="#472b29" d="M41.09,34.166c-0.058,0-0.115-0.02-0.163-0.061c-0.104-0.09-0.116-0.247-0.026-0.353 c5.954-6.95,11.674-3.501,11.732-3.465c0.116,0.073,0.152,0.227,0.079,0.344c-0.073,0.119-0.229,0.152-0.344,0.08 c-0.22-0.136-5.422-3.246-11.089,3.367C41.23,34.137,41.16,34.166,41.09,34.166z"/></g><g><path fill="#472b29" d="M49.168,69.796c-1.58,0-3.439-0.289-5.747-1.059c-0.131-0.044-0.202-0.186-0.158-0.316 s0.188-0.202,0.316-0.158c5.715,1.907,8.597,0.778,11.385-0.312l0.286-0.112c0.13-0.045,0.273,0.014,0.324,0.143 c0.05,0.129-0.014,0.273-0.143,0.324l-0.286,0.111C53.4,69.1,51.619,69.796,49.168,69.796z"/></g><g><path fill="#472b29" d="M57.866,67.049c-0.082,0-0.163-0.041-0.211-0.115c-0.074-0.117-0.04-0.271,0.076-0.346 c1.753-1.117,2.558-2.223,2.565-2.233c0.08-0.113,0.236-0.138,0.349-0.058s0.138,0.236,0.058,0.349 c-0.034,0.048-0.861,1.19-2.702,2.364C57.959,67.036,57.912,67.049,57.866,67.049z"/></g></svg>