<svg xmlns="http://www.w3.org/2000/svg"  viewBox="0 0 100 100" width="100px" height="100px"><path fill="#ee3e54" d="M13,27c-1.1,0-2,0.9-2,2s0.9,2,2,2s2-0.9,2-2S14.1,27,13,27z"/><path fill="#f1bc19" d="M77,12c-0.6,0-1,0.4-1,1s0.4,1,1,1s1-0.4,1-1S77.6,12,77,12z"/><path fill="#fce0a2" d="M50,13c-20.4,0-37,16.6-37,37s16.6,37,37,37s37-16.6,37-37S70.4,13,50,13z"/><path fill="#f1bc19" d="M83,11c-2.2,0-4,1.8-4,4s1.8,4,4,4s4-1.8,4-4S85.2,11,83,11z"/><path fill="#ee3e54" d="M87,22c-1.1,0-2,0.9-2,2s0.9,2,2,2s2-0.9,2-2S88.1,22,87,22z"/><path fill="#fbcd59" d="M81,74c-1.1,0-2,0.9-2,2s0.9,2,2,2s2-0.9,2-2S82.1,74,81,74z M15,59c-2.2,0-4,1.8-4,4 c0,2.2,1.8,4,4,4s4-1.8,4-4C19,60.8,17.2,59,15,59z"/><path fill="#ee3e54" d="M25,85c-1.1,0-2,0.9-2,2s0.9,2,2,2s2-0.9,2-2S26.1,85,25,85z"/><path fill="#fff" d="M18.5,51c-1.4,0-2.5,1.1-2.5,2.5s1.1,2.5,2.5,2.5s2.5-1.1,2.5-2.5S19.9,51,18.5,51z"/><path fill="#f1bc19" d="M21,66c-0.6,0-1,0.4-1,1s0.4,1,1,1s1-0.4,1-1S21.6,66,21,66z"/><path fill="#fff" d="M80,33c-0.6,0-1,0.4-1,1s0.4,1,1,1s1-0.4,1-1S80.6,33,80,33z"/><path fill="#cdcbbd" d="M29.5,69.3c-0.5,0-1.1-0.1-1.5-1.3c-0.3-0.9-0.3-1.9-0.3-2.7l-0.1-27.6V34c0-1.7,1.3-3.1,2.9-3.1 h17.6c1.7,0,3,1.5,3,3.2v1.5c0,1.2,1,2.3,2.2,2.3h16.1c0.4,0,0.8,0.4,0.8,0.9v23.6c0,0.3,0,0.7,0,1.2c0.1,1.7,0.1,4.5-0.4,5.8 H29.5V69.3z"/><path fill="#472b29" d="M48.3,31.6c1.3,0,2.3,1.1,2.3,2.5v1.5c0,1.6,1.3,3,2.9,3h16.1c0,0,0.1,0.1,0.1,0.2v23.6 c0,0.3,0,0.8,0,1.2c0,1.3,0.1,3.7-0.2,5.1h-40c-0.3,0-0.6,0-0.8-0.8c-0.2-0.8-0.2-1.8-0.2-2.4v-0.1l-0.1-27.5V34 c0-1.3,1-2.4,2.2-2.4H48.3 M48.3,30.2H30.6c-2,0-3.6,1.7-3.6,3.8v3.8l0.1,27.5c0,1.4-0.1,4.7,2.5,4.7h40.8 c1.1-1.6,0.7-5.9,0.7-7.7V38.7c0-0.9-0.7-1.6-1.5-1.6H53.5c-0.8,0-1.5-0.7-1.5-1.6V34C52,32,50.3,30.2,48.3,30.2L48.3,30.2z"/><path fill="#fdfcee" d="M29.6,69.3c-0.1,0-0.1-0.1-0.2-0.2c1.2-0.3,1.3-2.5,1.3-5.1V42.2c0-0.3,0.2-0.5,0.5-0.5h41.6 c0.3,0,0.5,0.2,0.5,0.5v23.6c0,1.9-1.5,3.5-3.4,3.5H29.6L29.6,69.3z"/><path fill="#472b29" d="M72.6,42.4v23.4c0,1.5-1.2,2.8-2.7,2.8h-39c0.6-1.2,0.6-3,0.6-4.7V42.4H72.6 M72.8,41H31.2 c-0.7,0-1.2,0.6-1.2,1.2v21.7c0,2.8-0.2,4.5-1,4.5c-0.9,0-0.3,1.6,0.6,1.6h40.3c2.3,0,4.1-1.9,4.1-4.2V42.2 C74,41.6,73.5,41,72.8,41L72.8,41z"/><path fill="#472b29" d="M41.5,35h-11c-0.3,0-0.5-0.2-0.5-0.5s0.2-0.5,0.5-0.5h11c0.3,0,0.5,0.2,0.5,0.5S41.8,35,41.5,35z"/><path fill="#472b29" d="M48.5,35h-4c-0.3,0-0.5-0.2-0.5-0.5s0.2-0.5,0.5-0.5h4c0.3,0,0.5,0.2,0.5,0.5S48.8,35,48.5,35z"/><path fill="#472b29" d="M51.5,61.1c-3,0-4.7-2.3-4.8-2.4c-0.3-0.4-0.2-1.1,0.2-1.4c0.4-0.3,1.1-0.2,1.4,0.2 c0,0.1,1.2,1.6,3.2,1.6s3.2-1.6,3.2-1.6c0.3-0.4,1-0.5,1.4-0.2s0.5,1,0.2,1.4C56.3,58.8,54.5,61.1,51.5,61.1z"/><circle cx="43.5" cy="51.1" r="2.5" fill="#472b29"/><circle cx="43.5" cy="50.1" r="1" fill="#fff"/><circle cx="59.5" cy="51.1" r="2.5" fill="#472b29"/><circle cx="59.5" cy="50.1" r="1" fill="#fff"/><g><path fill="#ff9592" d="M68.5,58.6c0,1.9-1.6,3.5-3.5,3.5s-3.5-1.6-3.5-3.5c0-0.5,0.1-1,0.3-1.5c0.6-1.2,1.8-2,3.2-2 C67,55.1,68.5,56.7,68.5,58.6z"/><path fill="#472b29" d="M65,62.35c-0.138,0-0.252-0.112-0.252-0.25s0.109-0.25,0.247-0.25c0.566,0,1.124-0.153,1.617-0.443 c0.119-0.071,0.271-0.03,0.343,0.089c0.069,0.119,0.03,0.272-0.089,0.343C66.295,62.173,65.65,62.35,65,62.35z M63.253,61.868 c-0.043,0-0.087-0.011-0.127-0.035c-0.563-0.332-1.036-0.806-1.367-1.372c-0.069-0.119-0.029-0.271,0.09-0.342 c0.116-0.071,0.271-0.031,0.342,0.09c0.288,0.492,0.7,0.905,1.189,1.194c0.119,0.069,0.158,0.223,0.088,0.342 C63.422,61.824,63.338,61.868,63.253,61.868z M68.02,60.593c-0.043,0-0.087-0.011-0.127-0.034 c-0.119-0.07-0.158-0.224-0.089-0.343c0.292-0.494,0.446-1.054,0.446-1.616c0-0.138,0.111-0.267,0.249-0.267 c0.139,0,0.25,0.096,0.25,0.233h-0.25l0.25,0.013c0.001,0.673-0.177,1.319-0.514,1.891C68.188,60.549,68.104,60.593,68.02,60.593z M61.5,58.84C61.5,58.84,61.5,58.84,61.5,58.84c-0.139,0-0.25-0.112-0.25-0.25c0.001-0.528,0.108-1.061,0.317-1.583 c0.057-0.114,0.108-0.208,0.162-0.298c0.071-0.12,0.224-0.157,0.343-0.087c0.119,0.071,0.157,0.225,0.087,0.343 c-0.048,0.08-0.094,0.162-0.136,0.246c-0.178,0.445-0.272,0.915-0.273,1.38C61.75,58.729,61.638,58.84,61.5,58.84z M68.022,57.072 c-0.086,0-0.169-0.044-0.216-0.124c-0.289-0.493-0.702-0.901-1.194-1.18c-0.12-0.068-0.162-0.221-0.095-0.341 s0.221-0.161,0.341-0.095c0.569,0.322,1.047,0.793,1.38,1.363c0.069,0.119,0.029,0.272-0.09,0.342 C68.109,57.061,68.065,57.072,68.022,57.072z M63.235,55.818c-0.086,0-0.171-0.045-0.217-0.126 c-0.068-0.119-0.027-0.272,0.093-0.341c0.566-0.325,1.214-0.498,1.872-0.5h0.001c0.138,0,0.25,0.111,0.25,0.249 c0,0.139-0.111,0.251-0.249,0.251c-0.572,0.002-1.134,0.151-1.626,0.434C63.32,55.807,63.277,55.818,63.235,55.818z"/></g><g><path fill="#ff9592" d="M42.5,58.6c0,1.9-1.6,3.5-3.5,3.5s-3.5-1.6-3.5-3.5c0-0.5,0.1-1,0.3-1.5c0.6-1.2,1.8-2,3.2-2 C41,55.1,42.5,56.7,42.5,58.6z"/><path fill="#472b29" d="M39,62.35c-0.138,0-0.252-0.112-0.252-0.25s0.109-0.25,0.248-0.25c0.566,0,1.124-0.153,1.618-0.443 c0.116-0.07,0.271-0.031,0.342,0.089c0.07,0.119,0.03,0.272-0.089,0.343C40.295,62.173,39.65,62.35,39,62.35z M37.252,61.868 c-0.043,0-0.087-0.011-0.127-0.035c-0.563-0.332-1.036-0.807-1.366-1.372c-0.07-0.119-0.029-0.272,0.09-0.342 c0.118-0.071,0.272-0.031,0.342,0.09c0.288,0.492,0.698,0.904,1.188,1.194c0.119,0.069,0.159,0.223,0.088,0.342 C37.421,61.824,37.338,61.868,37.252,61.868z M42.02,60.593c-0.043,0-0.087-0.011-0.127-0.034 c-0.119-0.07-0.159-0.224-0.088-0.343c0.292-0.495,0.445-1.054,0.445-1.616c0-0.138,0.112-0.268,0.25-0.268 c0.138,0,0.25,0.096,0.25,0.233H42.5l0.25,0.024c0,0.661-0.178,1.309-0.515,1.88C42.189,60.549,42.105,60.593,42.02,60.593z M35.5,58.84C35.5,58.84,35.5,58.84,35.5,58.84c-0.139,0-0.25-0.112-0.25-0.251c0.001-0.526,0.108-1.059,0.318-1.582 c0.056-0.115,0.108-0.209,0.164-0.301c0.071-0.118,0.226-0.154,0.343-0.084c0.118,0.072,0.155,0.226,0.083,0.344 c-0.048,0.08-0.093,0.162-0.135,0.245c-0.177,0.446-0.272,0.917-0.273,1.38C35.75,58.729,35.638,58.84,35.5,58.84z M42.022,57.072 c-0.086,0-0.17-0.045-0.216-0.124c-0.286-0.493-0.699-0.9-1.192-1.18c-0.12-0.068-0.163-0.221-0.095-0.341 c0.067-0.12,0.221-0.161,0.341-0.095c0.571,0.323,1.048,0.795,1.379,1.363c0.069,0.12,0.029,0.272-0.091,0.342 C42.108,57.061,42.065,57.072,42.022,57.072z M37.236,55.818c-0.086,0-0.17-0.045-0.217-0.126 c-0.069-0.119-0.027-0.272,0.092-0.341c0.565-0.324,1.212-0.497,1.871-0.5c0,0,0,0,0.001,0c0.138,0,0.25,0.111,0.25,0.249 s-0.111,0.25-0.249,0.251c-0.573,0.003-1.134,0.152-1.624,0.434C37.321,55.807,37.278,55.818,37.236,55.818z"/></g></svg>