<svg xmlns="http://www.w3.org/2000/svg"  viewBox="0 0 100 100" width="100px" height="100px"><circle cx="50.125" cy="49.958" r="37" fill="#cee1f4"/><circle cx="13.125" cy="28.958" r="2" fill="#78a0cf"/><circle cx="77.125" cy="12.958" r="1" fill="#f1bc19"/><circle cx="83.125" cy="14.958" r="4" fill="#f1bc19"/><circle cx="87.125" cy="23.958" r="2" fill="#78a0cf"/><circle cx="81.125" cy="75.958" r="2" fill="#fbcd59"/><circle cx="15.125" cy="65.958" r="4" fill="#fbcd59"/><circle cx="25.125" cy="86.958" r="2" fill="#78a0cf"/><circle cx="24.625" cy="33.458" r="2.5" fill="#fff"/><circle cx="82.125" cy="37.958" r="1" fill="#fff"/><circle cx="26.125" cy="73.958" r="1" fill="#f1bc19"/><path fill="#fff" d="M25.25,69.3c-1.406,0-2.55-1.144-2.55-2.55v-33.5c0-1.406,1.144-2.55,2.55-2.55h50.5 c1.406,0,2.55,1.144,2.55,2.55v33.5c0,1.406-1.144,2.55-2.55,2.55H25.25z"/><path fill="#472b29" d="M75.75,31.4c1.02,0,1.85,0.83,1.85,1.85v33.5c0,1.02-0.83,1.85-1.85,1.85h-50.5 c-1.02,0-1.85-0.83-1.85-1.85v-33.5c0-1.02,0.83-1.85,1.85-1.85H75.75 M75.75,30h-50.5C23.455,30,22,31.455,22,33.25v33.5 c0,1.795,1.455,3.25,3.25,3.25h50.5c1.795,0,3.25-1.455,3.25-3.25v-33.5C79,31.455,77.545,30,75.75,30L75.75,30z"/><path fill="#472b29" d="M75.5,33.75H69c-0.138,0-0.25-0.112-0.25-0.25s0.112-0.25,0.25-0.25h6.5 c0.138,0,0.25,0.112,0.25,0.25S75.638,33.75,75.5,33.75z"/><path fill="#472b29" d="M75.5,66.75H69c-0.138,0-0.25-0.112-0.25-0.25s0.112-0.25,0.25-0.25h6.5 c0.138,0,0.25,0.112,0.25,0.25S75.638,66.75,75.5,66.75z"/><path fill="#472b29" d="M52,66.75H25.5c-0.138,0-0.25-0.112-0.25-0.25s0.112-0.25,0.25-0.25H52 c0.138,0,0.25,0.112,0.25,0.25S52.138,66.75,52,66.75z"/><g><path fill="#472b29" d="M46.5,33.75H34c-0.138,0-0.25-0.112-0.25-0.25s0.112-0.25,0.25-0.25h12.5 c0.138,0,0.25,0.112,0.25,0.25S46.638,33.75,46.5,33.75z"/></g><g><path fill="#472b29" d="M32,33.75h-6.5c-0.138,0-0.25-0.112-0.25-0.25s0.112-0.25,0.25-0.25H32 c0.138,0,0.25,0.112,0.25,0.25S32.138,33.75,32,33.75z"/></g><g><path fill="#472b29" d="M25.501,66.75c-0.138,0-0.25-0.112-0.25-0.25V54c0-0.138,0.112-0.25,0.25-0.25s0.25,0.112,0.25,0.25 v12.5C25.751,66.638,25.639,66.75,25.501,66.75z"/></g><g><path fill="#472b29" d="M75.501,66.75c-0.138,0-0.25-0.112-0.25-0.25V60c0-0.138,0.112-0.25,0.25-0.25s0.25,0.112,0.25,0.25 v6.5C75.751,66.638,75.64,66.75,75.501,66.75z"/></g><g><path fill="#472b29" d="M75.5,38.75c-0.138,0-0.25-0.112-0.25-0.25v-5c0-0.138,0.112-0.25,0.25-0.25s0.25,0.112,0.25,0.25v5 C75.75,38.638,75.638,38.75,75.5,38.75z"/></g><g><path fill="#472b29" d="M75.5,54.25c-0.138,0-0.25-0.112-0.25-0.25V40.5c0-0.138,0.112-0.25,0.25-0.25s0.25,0.112,0.25,0.25 V54C75.75,54.138,75.638,54.25,75.5,54.25z"/></g><g><line x1="25.502" x2="25.5" y1="46" y2="51.5" fill="#cbc9bc"/><path fill="#472b29" d="M25.5,51.75L25.5,51.75c-0.138,0-0.25-0.112-0.25-0.25l0.001-5.5c0-0.138,0.112-0.25,0.25-0.25l0,0 c0.138,0,0.25,0.112,0.25,0.25l-0.001,5.5C25.75,51.638,25.639,51.75,25.5,51.75z"/></g><g><line x1="25.499" x2="25.498" y1="33.5" y2="41" fill="#cbc9bc"/><path fill="#472b29" d="M25.498,41.25L25.498,41.25c-0.138,0-0.25-0.112-0.25-0.25l0.001-7.5c0-0.138,0.112-0.25,0.25-0.25 l0,0c0.138,0,0.25,0.112,0.25,0.25L25.748,41C25.748,41.138,25.636,41.25,25.498,41.25z"/></g><g><path fill="#472b29" d="M67,33.75H49.5c-0.138,0-0.25-0.112-0.25-0.25s0.112-0.25,0.25-0.25H67 c0.138,0,0.25,0.112,0.25,0.25S67.138,33.75,67,33.75z"/></g><g><path fill="#472b29" d="M67,66.75H55c-0.138,0-0.25-0.112-0.25-0.25s0.112-0.25,0.25-0.25h12c0.138,0,0.25,0.112,0.25,0.25 S67.138,66.75,67,66.75z"/></g><g><circle cx="50.542" cy="50.542" r="9.958" fill="#ee3e54"/><path fill="#472b29" d="M40.82,48.622c-0.018,0-0.036-0.002-0.054-0.006c-0.135-0.03-0.22-0.164-0.19-0.298 c0.411-1.847,1.33-3.543,2.659-4.905c0.251-0.257,0.516-0.502,0.789-0.728c0.106-0.088,0.264-0.074,0.352,0.033 s0.074,0.264-0.033,0.352c-0.259,0.215-0.512,0.448-0.751,0.693c-1.263,1.295-2.137,2.907-2.528,4.664 C41.039,48.542,40.935,48.622,40.82,48.622z"/><path fill="#472b29" d="M50.542,60.75c-5.629,0-10.208-4.579-10.208-10.208c0-0.138,0.112-0.25,0.25-0.25 s0.25,0.112,0.25,0.25c0,5.353,4.355,9.708,9.708,9.708c2.836,0,5.523-1.235,7.371-3.391c0.092-0.104,0.249-0.117,0.353-0.026 c0.105,0.09,0.117,0.247,0.027,0.353C56.349,59.451,53.524,60.75,50.542,60.75z"/><path fill="#472b29" d="M59.108,55.873c-0.043,0-0.088-0.012-0.128-0.035c-0.119-0.07-0.158-0.224-0.087-0.343 c0.888-1.493,1.357-3.206,1.357-4.954c0-5.353-4.355-9.708-9.708-9.708c-1.749,0-3.463,0.47-4.957,1.359 c-0.118,0.07-0.272,0.032-0.343-0.087c-0.071-0.119-0.032-0.272,0.087-0.343c1.571-0.935,3.374-1.429,5.213-1.429 c5.629,0,10.208,4.579,10.208,10.208c0,1.837-0.494,3.639-1.427,5.209C59.276,55.829,59.193,55.873,59.108,55.873z"/></g></svg>