<?xml version="1.0" encoding="iso-8859-1"?>
<!-- Generator: Adobe Illustrator 19.0.0, SVG Export Plug-In . SVG Version: 6.00 Build 0)  -->
<svg xmlns="http://www.w3.org/2000/svg" xmlns:xlink="http://www.w3.org/1999/xlink" version="1.1" id="Layer_1" x="0px" y="0px" viewBox="0 0 512 512" style="enable-background:new 0 0 512 512;" xml:space="preserve">
<path style="fill:#F7F1EB;" d="M440.343,462.109c-123.342-75.475-275.041,15.969-397.907-62.216  c-1.522-0.969-2.291-2.78-1.959-4.553c21.629-115.642,43.26-231.283,64.889-346.925c0.573-3.061,4.033-4.579,6.692-2.952  c123.328,75.469,275.029-15.975,397.907,62.216c1.522,0.969,2.291,2.78,1.959,4.553c-21.629,115.642-43.259,231.283-64.89,346.924  C446.462,462.218,443,463.735,440.343,462.109z"/>
<path style="fill:#E8E2DD;" d="M121.997,51.15c-3.332-1.784-6.646-3.672-9.939-5.686c-2.657-1.626-6.119-0.109-6.692,2.952  c-21.629,115.641-43.26,231.283-64.89,346.924c-0.331,1.772,0.438,3.584,1.959,4.553c4.273,2.719,8.582,5.226,12.922,7.549  C77.571,288.678,99.785,169.914,121.997,51.15z"/>
<path style="fill:#F75534;" d="M371.118,253.691c-9.798,51.986-61.98,90.812-113.248,94.865  c-52.05,4.115-88.25-39.162-78.721-89.731c9.795-51.984,61.984-90.638,113.215-94.687  C344.239,160.039,380.678,202.963,371.118,253.691z"/>
<path style="fill:#D6D6D6;" d="M13.368,506.331l-0.031-0.006c-8.868-1.656-14.713-10.188-13.055-19.055l87.64-468.549  C89.579,9.857,98.108,4.015,106.972,5.67l0.031,0.006c8.868,1.656,14.713,10.188,13.055,19.055L32.418,493.28  C30.761,502.144,22.232,507.986,13.368,506.331z"/>
<path style="fill:#B3B3B3;" d="M16.809,487.616l87.639-468.549c0.927-4.956,4.004-8.965,8.085-11.249  c-1.655-1.016-3.509-1.765-5.531-2.142l-0.031-0.006c-8.865-1.655-17.393,4.187-19.051,13.051L0.281,487.269  c-1.658,8.867,4.187,17.399,13.055,19.055l0.031,0.006c3.908,0.729,7.748-0.001,10.965-1.801  C18.731,501.092,15.528,494.462,16.809,487.616z"/>
<g>
</g>
<g>
</g>
<g>
</g>
<g>
</g>
<g>
</g>
<g>
</g>
<g>
</g>
<g>
</g>
<g>
</g>
<g>
</g>
<g>
</g>
<g>
</g>
<g>
</g>
<g>
</g>
<g>
</g>
</svg>
