<svg id="Capa_1" enable-background="new 0 0 497 497" height="512" viewBox="0 0 497 497" width="512" xmlns="http://www.w3.org/2000/svg"><g><path d="m438.744 362.552c-29.53 50.145-54.135 108.1-138.404 91.234l-34.847-37.36 38.747-114.161c33.641-22.032 63.825-31.219 89.726-33.159z" fill="#e8a882"/><path d="m323.41 423.947c0-56.237 36.263-104.001 86.679-121.194l-16.123-33.646c-25.902 1.94-56.085 11.126-89.726 33.159l-38.747 114.16 34.847 37.36c9.898 1.981 18.964 2.918 27.32 2.969-2.768-10.473-4.25-21.467-4.25-32.808z" fill="#e3986d"/><path d="m473.813 316.749c-14.061 12.051-24.866 28.455-35.068 45.803-27.821-13.036-47.089-41.3-47.089-74.067 0-6.674.804-13.167 2.312-19.379 32.948-2.463 58.98 6.805 76.419 16.313 11.728 6.393 13.567 22.636 3.426 31.33z" fill="#ffefe0"/><path d="m17.502 25.086c3.559-15.107 17.499-25.902 33.621-25.038 39.591 2.101 66.92 26.505 66.92 26.505l-38.103 42.798z" fill="#e8a882"/><path d="m79.94 69.351-31.952 35.892c-26.988-24.474-32.134-53.12-31.33-73.895.09-2.151.372-4.242.844-6.262 27.47 3.307 50.678 20.454 62.438 44.265z" fill="#ffdde3"/><path d="m354.514 25.086c-3.558-15.107-17.499-25.902-33.621-25.037-39.591 2.101-66.92 26.505-66.92 26.505l38.104 42.798z" fill="#e8a882"/><path d="m292.076 69.351 31.952 35.892c26.987-24.474 32.133-53.12 31.329-73.896-.09-2.151-.372-4.242-.844-6.262-27.469 3.308-50.677 20.455-62.437 44.266z" fill="#ffdde3"/><path d="m334.042 202.846c-.142-.171-.283-.341-.423-.511-5.929-7.154-8.361-16.587-6.568-25.704 2.022-10.283 3.07-20.613 3.07-30.791 0-79.464-64.649-134.062-144.113-134.062s-144.113 54.598-144.113 134.062c0 10.178 1.049 20.509 3.07 30.791 1.792 9.117-.643 18.556-6.573 25.71l-.423.51c-10.748 12.968-9.198 32.139 3.492 43.213 17.981 15.689 41.037 24.334 64.9 24.334h159.291c23.863 0 46.919-8.644 64.9-24.334 12.693-11.074 14.238-30.25 3.49-43.218z" fill="#6a647f"/><g><path d="m336.052 407.892c-11.911 11.569-30.998 11.368-42.637-.603l-17.449-17.951 43.25-42.024 17.439 17.941c11.609 11.941 11.338 31.028-.603 42.637z" fill="#ffdde3"/></g><g><path d="m35.964 407.892c11.911 11.569 30.998 11.368 42.637-.603l17.449-17.951-43.25-42.024-17.439 17.941c-11.609 11.941-11.338 31.028.603 42.637z" fill="#ffdde3"/></g><path d="m339.487 300.135c-32.998-48.266-80.212-65.288-80.212-65.288v146.919h41.069l34.271-33.305c13.152-12.781 15.223-33.186 4.872-48.326z" fill="#ff748f"/><path d="m95.242 105.082c0-28.939 8.424-55.911 22.953-78.598-45.367 21.333-76.3 64.393-76.3 119.356 0 10.178 1.049 20.509 3.07 30.792 1.792 9.117-.643 18.556-6.573 25.709l-.423.51c-10.748 12.968-9.198 32.14 3.492 43.213 17.981 15.689 41.037 24.333 64.9 24.333h51.544c-39.712-40.196-62.663-110.897-62.663-165.315z" fill="#5c586f"/><path d="m32.529 300.135c32.998-48.266 80.212-65.288 80.212-65.288v146.919h-41.069l-34.271-33.305c-13.152-12.781-15.222-33.186-4.872-48.326z" fill="#ff748f"/><path d="m259.275 234.848h-146.534c-26.502 30.919-41.069 70.298-41.069 111.02v107.918c0 23.867 19.348 43.214 43.214 43.214h142.244c23.867 0 43.214-19.348 43.214-43.214v-107.919c0-40.722-14.567-80.101-41.069-111.019z" fill="#ff9db0"/><path d="m96.107 392.51c0-74.031 48.71-136.684 115.827-157.663h-99.193c-26.502 30.918-41.069 70.298-41.069 111.02v107.918c0 23.867 19.348 43.215 43.214 43.215h18.478c-23.283-28.467-37.257-64.845-37.257-104.49z" fill="#ff889e"/><path d="m195.851 326.557-64.663-91.71h-18.447c-3.432 4.004-6.66 8.153-9.686 12.426l74.514 105.683z" fill="#fbe5c8"/><path d="m259.275 234.847h-18.447l-95.277 135.129 24.644 17.375 98.766-140.079c-3.026-4.271-6.254-8.42-9.686-12.425z" fill="#fbe5c8"/><path d="m153.882 267.033-22.694-32.186h-18.447c-3.432 4.004-6.66 8.153-9.686 12.426l29.467 41.793c6.427-7.988 13.578-15.367 21.36-22.033z" fill="#fbdab2"/><path d="m97.51 125.924c-10.522 0-19.207 8.457-19.226 18.98v.196c0 59.495 48.23 127.827 107.725 127.827s107.724-68.332 107.724-127.827c0-.065 0-.131 0-.196-.019-10.522-8.704-18.98-19.226-18.98z" fill="#ffefe0"/><path d="m155.842 375.868h30.166v121.132h-30.166z" fill="#ffefe0"/><path d="m171.94 208.427c5.376 0 10.287-1.99 14.068-5.255 3.781 3.265 8.692 5.255 14.068 5.255 11.893 0 21.567-9.675 21.567-21.568 0-4.142-3.357-7.5-7.5-7.5s-7.5 3.358-7.5 7.5c0 3.622-2.946 6.568-6.567 6.568s-6.567-2.946-6.567-6.568c0-4.142-3.357-7.5-7.5-7.5s-7.5 3.358-7.5 7.5c0 3.622-2.946 6.568-6.568 6.568-3.621 0-6.567-2.946-6.567-6.568 0-4.142-3.357-7.5-7.5-7.5s-7.5 3.358-7.5 7.5c-.001 11.893 9.674 21.568 21.566 21.568z" fill="#423e4f"/><path d="m245.88 153.461c-11.522 0-20.896 9.374-20.896 20.896 0 4.142 3.357 7.5 7.5 7.5s7.5-3.358 7.5-7.5c0-3.251 2.646-5.896 5.896-5.896s5.896 2.645 5.896 5.896c0 4.142 3.357 7.5 7.5 7.5s7.5-3.358 7.5-7.5c-.001-11.523-9.375-20.896-20.896-20.896z" fill="#423e4f"/><path d="m71.672 355.918h228.672v45.492h-228.672z" fill="#90d3f1"/><path d="m451.429 295.927c9.876 0 19.49 1.12 28.724 3.237-.924-5.554-4.251-10.739-9.768-13.745-17.439-9.508-43.471-18.776-76.419-16.313-1.508 6.211-2.312 12.705-2.312 19.378 0 7.208.934 14.197 2.685 20.855 17.19-8.578 36.574-13.412 57.09-13.412z" fill="#fbe5c8"/><path d="m96.296 125.985c-9.966.623-17.995 8.806-18.013 18.919v.196c0 48.323 31.818 102.476 75.647 121.109-32.483-35.547-52.923-91.599-57.634-140.224z" fill="#fbe5c8"/><path d="m112.742 181.856c4.143 0 7.5-3.358 7.5-7.5 0-3.251 2.645-5.896 5.896-5.896s5.896 2.645 5.896 5.896c0 4.142 3.357 7.5 7.5 7.5s7.5-3.358 7.5-7.5c0-11.522-9.374-20.896-20.896-20.896s-20.896 9.374-20.896 20.896c0 4.142 3.357 7.5 7.5 7.5z" fill="#423e4f"/><path d="m96.107 392.51c0-12.576 1.413-24.821 4.075-36.592h-28.51v45.492h24.675c-.156-2.946-.24-5.913-.24-8.9z" fill="#59c2e7"/></g></svg>