<svg xmlns="http://www.w3.org/2000/svg"  viewBox="0 0 100 100" width="100px" height="100px"><circle cx="13" cy="29" r="2" fill="#ee3e54"/><circle cx="77" cy="13" r="1" fill="#f1bc19"/><circle cx="50" cy="50" r="37" fill="#fce0a2"/><circle cx="83" cy="15" r="4" fill="#f1bc19"/><circle cx="87" cy="24" r="2" fill="#ee3e54"/><circle cx="81" cy="76" r="2" fill="#fbcd59"/><circle cx="15" cy="63" r="4" fill="#fbcd59"/><circle cx="25" cy="87" r="2" fill="#ee3e54"/><circle cx="18.5" cy="53.5" r="2.5" fill="#fff"/><circle cx="21" cy="67" r="1" fill="#f1bc19"/><circle cx="80" cy="34" r="1" fill="#fff"/><g><rect width="8.6" height="8.6" x="43.7" y="59.7" fill="#ceccbe"/><path fill="#472b29" d="M51.6,60.4v7.2h-7.2v-7.2H51.6 M53,59H43v10h10V59L53,59z"/><path fill="#ceccbe" d="M36.743,71.3c0.292-2.033,2.044-3.6,4.156-3.6h14.202c2.112,0,3.865,1.567,4.157,3.6H36.743z"/><path fill="#472b29" d="M55.101,68.4c1.471,0,2.732,0.912,3.249,2.2h-20.7c0.517-1.288,1.778-2.2,3.249-2.2H55.101 M55.101,67H40.899C38.193,67,36,69.193,36,71.899V72h24v-0.101C60,69.193,57.807,67,55.101,67L55.101,67z"/><path fill="#ceccbe" d="M26.436,62.3c-2.06,0-3.736-1.676-3.736-3.736V33.436c0-2.06,1.676-3.736,3.736-3.736h43.127 c2.061,0,3.736,1.676,3.736,3.736v25.127c0,2.06-1.676,3.736-3.736,3.736H26.436z"/><path fill="#472b29" d="M69.564,30.4c1.674,0,3.036,1.362,3.036,3.036v25.128c0,1.674-1.362,3.036-3.036,3.036H26.436 c-1.674,0-3.036-1.362-3.036-3.036V33.436c0-1.674,1.362-3.036,3.036-3.036H69.564 M69.564,29H26.436 C23.996,29,22,30.996,22,33.436v25.128C22,61.004,23.996,63,26.436,63h43.128C72.004,63,74,61.004,74,58.564V33.436 C74,30.996,72.004,29,69.564,29L69.564,29z"/><rect width="49.152" height="24" x="23.514" y="34" fill="#78cdd4"/><path fill="#472b29" d="M55.5,34h-32c-0.276,0-0.5-0.224-0.5-0.5s0.224-0.5,0.5-0.5h32c0.276,0,0.5,0.224,0.5,0.5 S55.776,34,55.5,34z"/><path fill="#472b29" d="M62.5,34h-4c-0.276,0-0.5-0.224-0.5-0.5s0.224-0.5,0.5-0.5h4c0.276,0,0.5,0.224,0.5,0.5 S62.776,34,62.5,34z"/><path fill="#472b29" d="M31.5,59h-6c-0.276,0-0.5-0.224-0.5-0.5s0.224-0.5,0.5-0.5h6c0.276,0,0.5,0.224,0.5,0.5 S31.776,59,31.5,59z"/><path fill="#472b29" d="M59.5,59h-24c-0.276,0-0.5-0.224-0.5-0.5s0.224-0.5,0.5-0.5h24c0.276,0,0.5,0.224,0.5,0.5 S59.776,59,59.5,59z"/><path fill="#472b29" d="M35.5,59h-2c-0.276,0-0.5-0.224-0.5-0.5s0.224-0.5,0.5-0.5h2c0.276,0,0.5,0.224,0.5,0.5 S35.776,59,35.5,59z"/><path fill="#472b29" d="M72.5,34h-7c-0.276,0-0.5-0.224-0.5-0.5s0.224-0.5,0.5-0.5h7c0.276,0,0.5,0.224,0.5,0.5 S72.776,34,72.5,34z"/><path fill="#472b29" d="M76.5,72h-47c-0.276,0-0.5-0.224-0.5-0.5s0.224-0.5,0.5-0.5h47c0.276,0,0.5,0.224,0.5,0.5 S76.776,72,76.5,72z"/><path fill="#6f913d" d="M68.5,39.5c0,0,6,5,3.191,18.202l-4.018,0.255C67.673,57.957,62.5,46.5,68.5,39.5z"/><path fill="#472b29" d="M67.673,58.458c-0.195,0-0.374-0.114-0.456-0.294c-0.216-0.48-5.232-11.83,0.903-18.989 c0.178-0.208,0.489-0.233,0.7-0.059c0.254,0.212,6.199,5.346,3.36,18.69c-0.047,0.219-0.233,0.381-0.458,0.395l-4.019,0.255 C67.694,58.457,67.684,58.458,67.673,58.458z M68.537,40.247c-4.681,6.067-1.279,15.365-0.541,17.189l3.283-0.209 C73.414,46.679,69.736,41.58,68.537,40.247z"/><path fill="#88ae45" d="M61.5,44c0,0-3,9.167,5,16.5h5C71.5,60.5,72.5,48.583,61.5,44z"/><path fill="#472b29" d="M71.5,61h-5c-0.125,0-0.246-0.047-0.338-0.131c-8.144-7.465-5.168-16.929-5.138-17.024 c0.044-0.133,0.141-0.241,0.268-0.299c0.125-0.059,0.271-0.061,0.4-0.007c11.207,4.669,10.316,16.88,10.306,17.003 C71.977,60.801,71.76,61,71.5,61z M66.696,60h4.328c0.059-2.172-0.252-11.247-9.188-15.309 C61.375,46.706,60.282,54.001,66.696,60z"/><g><path fill="#88ae45" d="M66.5,61.5c0-4,0.876-10.758,11-15c0,6-3,12-7,15C67.106,64.046,66.5,61.5,66.5,61.5z"/><path fill="#472b29" d="M67.951,63.131c-0.248,0-0.481-0.039-0.699-0.118c-0.98-0.354-1.229-1.355-1.238-1.397 C66.005,61.578,66,61.539,66,61.5c0-2.652,0-10.723,11.307-15.461c0.154-0.064,0.33-0.048,0.471,0.045 C77.916,46.176,78,46.333,78,46.5c0,5.981-2.894,12.17-7.2,15.4C69.707,62.719,68.753,63.131,67.951,63.131z M67,61.427 c0.046,0.135,0.207,0.51,0.601,0.648c0.569,0.199,1.493-0.146,2.6-0.976c3.82-2.866,6.542-8.464,6.782-13.83 C68.104,51.267,67.013,57.223,67,61.427z M66.5,61.5h0.01H66.5z"/></g><g><polygon fill="#9f8066" points="76.5,57 61.5,57 63.5,71.5 74.5,71.5"/><path fill="#472b29" d="M74.5,72h-11c-0.25,0-0.461-0.184-0.495-0.432l-2-14.5c-0.02-0.143,0.023-0.288,0.118-0.397 c0.095-0.109,0.232-0.171,0.377-0.171h15c0.145,0,0.282,0.063,0.377,0.171c0.095,0.109,0.138,0.254,0.118,0.397l-2,14.5 C74.961,71.816,74.75,72,74.5,72z M63.936,71h10.129l1.862-13.5H62.073L63.936,71z"/></g><g><polygon fill="#8889b9" points="52.956,47.271 44.036,40.192 45.613,51.47 47.95,48.742 50.23,52.728 51.698,51.888 49.419,47.902"/><path fill="#472b29" d="M50.229,52.978c-0.022,0-0.044-0.003-0.066-0.009c-0.064-0.017-0.118-0.06-0.151-0.117 l-2.104-3.678l-2.106,2.459c-0.064,0.075-0.165,0.105-0.26,0.077c-0.094-0.028-0.164-0.108-0.177-0.205l-1.577-11.278 c-0.014-0.101,0.035-0.201,0.124-0.252c0.089-0.051,0.199-0.042,0.279,0.021l8.92,7.079c0.077,0.061,0.111,0.162,0.087,0.257 C53.175,47.428,53.097,47.5,53,47.517l-3.188,0.568l2.103,3.678c0.033,0.057,0.042,0.126,0.024,0.19s-0.06,0.118-0.117,0.151 l-1.469,0.84C50.315,52.967,50.272,52.978,50.229,52.978z M47.95,48.491c0.008,0,0.016,0,0.023,0.001 c0.081,0.008,0.153,0.054,0.193,0.125l2.155,3.769l1.035-0.592l-2.155-3.769c-0.041-0.071-0.044-0.156-0.01-0.23 c0.035-0.073,0.103-0.126,0.183-0.14l2.991-0.533l-7.996-6.346l1.414,10.11l1.977-2.307 C47.808,48.523,47.877,48.491,47.95,48.491z"/></g><g><path fill="#472b29" d="M73.786,61.319c-0.01,0-0.02,0-0.03-0.002c-0.137-0.017-0.234-0.141-0.218-0.278l0.299-2.457 c0.017-0.136,0.127-0.233,0.278-0.218c0.137,0.017,0.234,0.141,0.218,0.279l-0.299,2.457 C74.019,61.226,73.911,61.319,73.786,61.319z"/></g><g><path fill="#472b29" d="M72.761,69.729c-0.01,0-0.02,0-0.03-0.002c-0.137-0.017-0.234-0.141-0.218-0.278l0.812-6.662 c0.017-0.136,0.128-0.237,0.278-0.218c0.137,0.017,0.234,0.141,0.218,0.278l-0.812,6.662 C72.993,69.636,72.886,69.729,72.761,69.729z"/></g></g></svg>