<svg xmlns="http://www.w3.org/2000/svg"  viewBox="0 0 100 100" width="100px" height="100px"><path fill="#ee3e54" d="M12.875,26.958c-1.105,0-2,0.895-2,2s0.895,2,2,2s2-0.895,2-2S13.98,26.958,12.875,26.958z"/><path fill="#f1bc19" d="M76.875,11.958c-0.551,0-1,0.449-1,1s0.449,1,1,1s1-0.449,1-1S77.426,11.958,76.875,11.958z"/><path fill="#fce0a2" d="M49.875,12.958c-20.434,0-37,16.566-37,37s16.566,37,37,37s37-16.566,37-37 S70.309,12.958,49.875,12.958z"/><path fill="#f1bc19" d="M82.875,10.958c-2.211,0-4,1.789-4,4s1.789,4,4,4s4-1.789,4-4S85.086,10.958,82.875,10.958z"/><path fill="#ee3e54" d="M86.875,21.958c-1.105,0-2,0.895-2,2s0.895,2,2,2s2-0.895,2-2S87.98,21.958,86.875,21.958z"/><path fill="#fbcd59" d="M80.875,73.958c-1.105,0-2,0.895-2,2s0.895,2,2,2s2-0.895,2-2S81.98,73.958,80.875,73.958z M14.875,58.958c-2.211,0-4,1.789-4,4c0,2.211,1.789,4,4,4s4-1.789,4-4C18.875,60.747,17.086,58.958,14.875,58.958z"/><path fill="#ee3e54" d="M24.875,84.958c-1.105,0-2,0.895-2,2s0.895,2,2,2s2-0.895,2-2S25.98,84.958,24.875,84.958z"/><path fill="#fff" d="M18.375,40.958c-1.379,0-2.5,1.121-2.5,2.5s1.121,2.5,2.5,2.5s2.5-1.121,2.5-2.5 S19.754,40.958,18.375,40.958z"/><path fill="#f1bc19" d="M20.875,64.958c-0.551,0-1,0.449-1,1s0.449,1,1,1s1-0.449,1-1S21.426,64.958,20.875,64.958z"/><path fill="#fff" d="M79.875,31.958c-0.551,0-1,0.449-1,1s0.449,1,1,1s1-0.449,1-1S80.426,31.958,79.875,31.958z"/><g><polygon fill="#77cbd2" points="40.004,37.344 64.617,51.032 45.477,62.882"/><path fill="#472b29" d="M41.015,38.721l22.22,12.344L45.953,61.764L41.015,38.721 M39.878,36.574 c-0.363,0-0.683,0.336-0.596,0.739l5.537,25.84c0.063,0.296,0.323,0.483,0.598,0.483c0.108,0,0.218-0.029,0.32-0.092 l19.38-11.997c0.396-0.245,0.382-0.826-0.025-1.052L40.174,36.652C40.077,36.598,39.976,36.574,39.878,36.574L39.878,36.574z"/><polygon fill="#fff" points="24.483,62.276 37.779,58.783 44.034,65.958 36.977,72.091"/><path fill="#472b29" d="M37.52,59.577l5.505,6.291l-6.073,5.313l-10.883-8.551L37.52,59.577 M37.771,58.084 c-0.057,0-0.115,0.007-0.172,0.022l-13.307,3.549c-0.532,0.142-0.673,0.83-0.241,1.17l12.513,9.832 c0.121,0.095,0.267,0.143,0.413,0.143c0.157,0,0.314-0.055,0.44-0.165l7.081-6.196c0.278-0.243,0.306-0.665,0.063-0.942 l-6.287-7.185C38.145,58.166,37.961,58.084,37.771,58.084L37.771,58.084z"/><path fill="#edf7f5" d="M21.787,41.378l19.025,32.293C40.928,73.875,41.144,74,41.378,74h10.387 c0.152,0,0.298-0.053,0.415-0.149l14.251-10.775c0.194-0.161,0.279-0.419,0.217-0.663l-2.555-10.046 c-0.058-0.226-0.232-0.405-0.457-0.467L22.529,40.427C21.968,40.27,21.498,40.872,21.787,41.378z"/><path fill="#77cbd2" d="M42.748,55.419L22.551,41.1c-0.363-0.258-0.822,0.161-0.599,0.546L40.88,73.355 c0.074,0.128,0.211,0.207,0.359,0.207h10.606c0.1,0,0.196-0.036,0.271-0.101l7.483-5.465c0.204-0.176,0.188-0.497-0.031-0.652 l-13.967-9.903l-1.304-0.924"/><path fill="#472b29" d="M23.943,42.275l38.9,10.856l2.325,9.143L51.515,72.6h-9.71L23.943,42.275 M22.219,40.363 c-0.429,0-0.739,0.476-0.507,0.883L40.83,73.703c0.105,0.184,0.3,0.297,0.512,0.297h10.446c0.137,0,0.27-0.048,0.375-0.135 L66.462,63.05c0.176-0.145,0.252-0.379,0.196-0.6l-2.574-10.12c-0.052-0.205-0.209-0.366-0.413-0.423L22.382,40.386 C22.326,40.37,22.272,40.363,22.219,40.363L22.219,40.363z"/><path fill="#472b29" d="M59.583,67.833c-0.101,0-0.202-0.03-0.29-0.093l-13.965-9.966 c-0.226-0.161-0.277-0.473-0.117-0.698c0.161-0.225,0.475-0.275,0.697-0.117l13.965,9.966c0.226,0.161,0.277,0.473,0.117,0.698 C59.893,67.761,59.738,67.833,59.583,67.833z"/><path fill="#472b29" d="M42.078,55.341c-0.101,0-0.202-0.03-0.29-0.093l-8.579-6.122c-0.226-0.161-0.277-0.473-0.117-0.698 c0.161-0.226,0.474-0.275,0.697-0.117l8.579,6.122c0.226,0.161,0.277,0.473,0.117,0.698 C42.388,55.268,42.233,55.341,42.078,55.341z"/><path fill="#472b29" d="M30.936,47.39c-0.101,0-0.202-0.03-0.29-0.093l-7.436-5.306c-0.226-0.161-0.277-0.473-0.117-0.698 c0.161-0.225,0.475-0.276,0.697-0.117l7.436,5.306c0.226,0.161,0.277,0.473,0.117,0.698C31.245,47.317,31.091,47.39,30.936,47.39z"/><line x1="61.687" x2="62.961" y1="33.188" y2="36.826" fill="#77cbd2"/><path fill="#472b29" d="M62.961,37.076c-0.104,0-0.2-0.064-0.236-0.167l-1.273-3.639c-0.045-0.13,0.023-0.273,0.153-0.318 c0.132-0.047,0.273,0.023,0.319,0.153l1.273,3.639c0.045,0.13-0.023,0.273-0.153,0.318C63.017,37.072,62.988,37.076,62.961,37.076 z"/><polygon fill="#77cbd2" points="64,26 76,33 59,33"/><path fill="#472b29" d="M76,33.7H59c-0.263,0-0.502-0.147-0.622-0.38s-0.1-0.514,0.053-0.727l5-7 c0.21-0.294,0.609-0.38,0.922-0.198l12,7c0.273,0.159,0.405,0.482,0.323,0.787C76.593,33.488,76.316,33.7,76,33.7z M60.36,32.3 h13.051l-9.213-5.374L60.36,32.3z"/><g><polygon fill="#fff" points="59,33 66.25,62.313 72,48.452 64,33"/><path fill="#472b29" d="M66.25,63.013c-0.018,0-0.035-0.001-0.053-0.002c-0.302-0.023-0.555-0.237-0.627-0.53l-7.25-29.313 c-0.052-0.209-0.004-0.43,0.129-0.6C58.581,32.399,58.785,32.3,59,32.3h5c0.262,0,0.501,0.146,0.622,0.378l8,15.452 c0.095,0.183,0.104,0.399,0.024,0.59l-5.75,13.861C66.787,62.844,66.531,63.013,66.25,63.013z M59.895,33.7l6.524,26.379 l4.81-11.595L63.574,33.7H59.895z"/></g><g><line x1="67.068" x2="69.125" y1="48.561" y2="54.438" fill="#77cbd2"/><path fill="#472b29" d="M69.125,54.688c-0.104,0-0.2-0.064-0.236-0.167l-2.057-5.877c-0.045-0.13,0.023-0.273,0.153-0.318 c0.13-0.046,0.273,0.023,0.319,0.153l2.057,5.877c0.045,0.13-0.023,0.273-0.153,0.318C69.181,54.683,69.152,54.688,69.125,54.688z"/></g><g><line x1="63.928" x2="66.004" y1="39.588" y2="45.52" fill="#77cbd2"/><path fill="#472b29" d="M66.004,45.771c-0.104,0-0.2-0.064-0.236-0.167l-2.076-5.933c-0.045-0.13,0.023-0.273,0.153-0.318 c0.13-0.047,0.273,0.023,0.319,0.153l2.076,5.933c0.045,0.13-0.023,0.273-0.153,0.318C66.06,45.766,66.031,45.771,66.004,45.771z"/></g></g></svg>