<svg xmlns="http://www.w3.org/2000/svg"  viewBox="0 0 100 100" width="100px" height="100px"><circle cx="77" cy="13" r="1" fill="#f1bc19"/><circle cx="50" cy="50" r="37" fill="#e6edb7"/><circle cx="83" cy="15" r="4" fill="#f1bc19"/><circle cx="87" cy="24" r="2" fill="#88ae45"/><circle cx="81" cy="76" r="2" fill="#fbcd59"/><circle cx="15" cy="63" r="4" fill="#fbcd59"/><circle cx="25" cy="87" r="2" fill="#88ae45"/><circle cx="18.5" cy="51.5" r="2.5" fill="#fff"/><circle cx="79.5" cy="33.5" r="1.5" fill="#fff"/><g><circle cx="58.5" cy="33.5" r="10.669" fill="#f4989e"/><circle cx="58.5" cy="33.5" r="6.149" fill="#ee3e54"/><polygon fill="#f4989e" points="51.962,60 53.138,63.862 57,65.038 53.138,66.213 51.962,70.076 50.787,66.213 46.924,65.038 50.787,63.862"/><path fill="#472b29" d="M51.962,70.326L51.962,70.326c-0.11,0-0.207-0.072-0.239-0.177l-1.136-3.735l-3.735-1.137 c-0.105-0.032-0.177-0.129-0.177-0.239s0.072-0.207,0.177-0.239l3.735-1.137l1.136-3.735c0.064-0.21,0.414-0.21,0.479,0 l1.137,3.735l3.735,1.137c0.104,0.032,0.177,0.129,0.177,0.239s-0.072,0.207-0.177,0.239l-3.735,1.137l-1.137,3.735 C52.169,70.254,52.072,70.326,51.962,70.326z M47.783,65.038l3.077,0.936c0.08,0.024,0.143,0.087,0.166,0.167l0.937,3.076 l0.937-3.076c0.024-0.08,0.087-0.142,0.166-0.167l3.077-0.936l-3.077-0.936c-0.079-0.024-0.142-0.087-0.166-0.167l-0.937-3.076 l-0.937,3.076c-0.023,0.08-0.086,0.142-0.166,0.167L47.783,65.038z"/><polygon fill="#ee3e54" points="65.5,70 66.55,73.45 70,74.5 66.55,75.55 65.5,79 64.45,75.55 61,74.5 64.45,73.45"/><path fill="#472b29" d="M65.5,79.25c-0.11,0-0.207-0.072-0.239-0.177L64.25,75.75l-3.323-1.011 c-0.104-0.032-0.177-0.129-0.177-0.239s0.072-0.207,0.177-0.239l3.323-1.011l1.011-3.322c0.064-0.21,0.414-0.21,0.479,0 l1.011,3.322l3.323,1.011c0.104,0.032,0.177,0.129,0.177,0.239s-0.072,0.207-0.177,0.239L66.75,75.75l-1.011,3.322 C65.707,79.178,65.61,79.25,65.5,79.25z M61.858,74.5l2.665,0.811c0.079,0.024,0.142,0.087,0.166,0.167l0.811,2.664l0.811-2.664 c0.024-0.08,0.087-0.142,0.166-0.167l2.665-0.811l-2.665-0.811c-0.079-0.024-0.142-0.087-0.166-0.167L65.5,70.859l-0.811,2.664 c-0.024,0.08-0.087,0.142-0.166,0.167L61.858,74.5z"/><path fill="#472b29" d="M56,77.25c-0.128,0-0.237-0.098-0.249-0.227c-0.01-0.108-0.229-2.692,0.796-6.178 c0.039-0.133,0.18-0.21,0.311-0.169c0.133,0.039,0.208,0.178,0.17,0.31c-0.997,3.388-0.78,5.966-0.778,5.992 c0.013,0.137-0.089,0.259-0.227,0.271C56.015,77.25,56.007,77.25,56,77.25z"/><path fill="#472b29" d="M57.387,69.421c-0.03,0-0.062-0.006-0.092-0.018c-0.129-0.051-0.191-0.196-0.141-0.324 c0.967-2.446,2.386-4.669,4.219-6.61c0.095-0.1,0.252-0.105,0.354-0.01c0.101,0.095,0.104,0.253,0.01,0.353 c-1.789,1.894-3.174,4.064-4.117,6.45C57.58,69.362,57.486,69.421,57.387,69.421z"/><path fill="#472b29" d="M62.781,61.692c-0.068,0-0.136-0.028-0.186-0.082c-0.093-0.102-0.085-0.26,0.018-0.353 c0.983-0.889,2.077-1.719,3.253-2.468c0.113-0.073,0.27-0.041,0.345,0.077c0.074,0.116,0.04,0.271-0.077,0.345 c-1.151,0.733-2.223,1.546-3.185,2.416C62.901,61.671,62.841,61.692,62.781,61.692z"/><path fill="#472b29" d="M71.817,53.014c-0.037,0-0.074-0.008-0.109-0.025c-0.124-0.06-0.176-0.21-0.115-0.334 c0.385-0.795,0.688-1.64,0.902-2.51c0.033-0.134,0.173-0.218,0.303-0.183c0.135,0.033,0.216,0.168,0.184,0.302 c-0.223,0.904-0.539,1.781-0.939,2.608C71.999,52.962,71.91,53.014,71.817,53.014z"/><path fill="#472b29" d="M73.054,48.647c-0.009,0-0.018,0-0.026-0.001c-0.138-0.014-0.236-0.138-0.223-0.275 c0.425-4.003-1.018-7.235-1.032-7.267c-0.058-0.126-0.002-0.274,0.124-0.331c0.122-0.058,0.273-0.002,0.331,0.124 c0.063,0.136,1.514,3.389,1.075,7.527C73.289,48.552,73.181,48.647,73.054,48.647z"/><polygon fill="#f4989e" points="68.5,47.924 70.268,53.732 76.076,55.5 70.268,57.268 68.5,63.076 66.732,57.268 60.924,55.5 66.732,53.732"/><path fill="#472b29" d="M39.5,73.75c-0.018,0-0.035-0.002-0.053-0.006c-0.135-0.029-0.221-0.162-0.192-0.297 c0.536-2.5,1.329-4.787,2.357-6.8c0.063-0.123,0.214-0.171,0.336-0.109c0.123,0.063,0.172,0.213,0.109,0.336 c-1.009,1.974-1.787,4.22-2.313,6.677C39.719,73.67,39.616,73.75,39.5,73.75z"/><path fill="#472b29" d="M42.83,65.261c-0.046,0-0.092-0.012-0.133-0.039c-0.117-0.073-0.152-0.228-0.078-0.345 c3.963-6.289,9.939-8.764,14.741-10.754c0.127-0.052,0.273,0.007,0.327,0.135c0.053,0.128-0.008,0.274-0.136,0.327 c-4.736,1.962-10.631,4.404-14.509,10.558C42.994,65.22,42.913,65.261,42.83,65.261z"/><path fill="#472b29" d="M59.5,53.75c-0.097,0-0.189-0.057-0.229-0.152c-0.055-0.127,0.004-0.274,0.131-0.328 c2.647-1.135,4.289-2.529,4.881-4.143c0.523-1.428,0-2.504-0.006-2.515c-0.062-0.124-0.012-0.274,0.112-0.335 c0.12-0.061,0.273-0.012,0.335,0.112c0.025,0.052,0.625,1.282,0.028,2.911c-0.641,1.749-2.375,3.24-5.153,4.431 C59.566,53.744,59.533,53.75,59.5,53.75z"/><path fill="#472b29" d="M68.5,63.326c-0.11,0-0.207-0.072-0.239-0.177l-1.729-5.68l-5.681-1.729 c-0.104-0.032-0.177-0.129-0.177-0.239s0.072-0.207,0.177-0.239l5.681-1.729l0.544-1.789c0.041-0.132,0.186-0.206,0.312-0.167 c0.133,0.04,0.207,0.18,0.167,0.312l-0.583,1.917c-0.024,0.08-0.087,0.142-0.166,0.167L61.783,55.5l5.022,1.529 c0.079,0.024,0.142,0.087,0.166,0.167l1.528,5.022l1.528-5.022c0.024-0.08,0.087-0.142,0.166-0.167l1.466-0.446 c0.134-0.039,0.271,0.034,0.313,0.167c0.04,0.132-0.034,0.272-0.166,0.312l-1.339,0.407l-1.729,5.68 C68.707,63.254,68.61,63.326,68.5,63.326z"/><path fill="#472b29" d="M73.337,56.583c-0.107,0-0.206-0.069-0.239-0.177c-0.04-0.132,0.034-0.272,0.166-0.312l1.953-0.594 l-5.022-1.529c-0.079-0.024-0.142-0.087-0.166-0.167L68.5,48.783l-0.377,1.238c-0.041,0.132-0.179,0.206-0.313,0.167 c-0.132-0.04-0.206-0.18-0.166-0.312l0.616-2.024c0.064-0.21,0.414-0.21,0.479,0l1.729,5.68l5.681,1.729 c0.104,0.032,0.177,0.129,0.177,0.239s-0.072,0.207-0.177,0.239l-2.738,0.833C73.386,56.58,73.361,56.583,73.337,56.583z"/><path fill="#472b29" d="M58.5,30.75c-0.138,0-0.25-0.112-0.25-0.25v-4.313c0-0.138,0.112-0.25,0.25-0.25 s0.25,0.112,0.25,0.25V30.5C58.75,30.638,58.638,30.75,58.5,30.75z"/><path fill="#472b29" d="M58.5,24.844c-0.138,0-0.25-0.112-0.25-0.25V19.5c0-0.138,0.112-0.25,0.25-0.25 s0.25,0.112,0.25,0.25v5.094C58.75,24.732,58.638,24.844,58.5,24.844z"/><path fill="#472b29" d="M58.5,47.75c-0.138,0-0.25-0.112-0.25-0.25v-6c0-0.138,0.112-0.25,0.25-0.25s0.25,0.112,0.25,0.25 v6C58.75,47.638,58.638,47.75,58.5,47.75z"/><path fill="#472b29" d="M68.031,33.75H62.5c-0.138,0-0.25-0.112-0.25-0.25s0.112-0.25,0.25-0.25h5.531 c0.138,0,0.25,0.112,0.25,0.25S68.169,33.75,68.031,33.75z"/><path fill="#472b29" d="M73.5,33.75h-3.125c-0.138,0-0.25-0.112-0.25-0.25s0.112-0.25,0.25-0.25H73.5 c0.138,0,0.25,0.112,0.25,0.25S73.638,33.75,73.5,33.75z"/><path fill="#472b29" d="M51.5,33.75h-7c-0.138,0-0.25-0.112-0.25-0.25s0.112-0.25,0.25-0.25h7 c0.138,0,0.25,0.112,0.25,0.25S51.638,33.75,51.5,33.75z"/><path fill="#472b29" d="M52.25,28c-0.064,0-0.128-0.024-0.177-0.073l-4-4c-0.098-0.098-0.098-0.256,0-0.354 s0.256-0.098,0.354,0l4,4c0.098,0.098,0.098,0.256,0,0.354C52.378,27.976,52.314,28,52.25,28z"/><path fill="#472b29" d="M61.25,31.639c-0.064,0-0.128-0.024-0.177-0.073c-0.098-0.098-0.098-0.256,0-0.354l1.304-1.304 c0.098-0.098,0.256-0.098,0.354,0s0.098,0.256,0,0.354l-1.304,1.304C61.378,31.615,61.314,31.639,61.25,31.639z"/><path fill="#472b29" d="M63.913,28.976c-0.064,0-0.128-0.024-0.177-0.073c-0.098-0.098-0.098-0.256,0-0.354l3.976-3.976 c0.098-0.098,0.256-0.098,0.354,0s0.098,0.256,0,0.354l-3.976,3.976C64.041,28.951,63.978,28.976,63.913,28.976z"/><path fill="#472b29" d="M68.889,43.639c-0.064,0-0.128-0.024-0.177-0.073l-6.639-6.639c-0.098-0.098-0.098-0.256,0-0.354 s0.256-0.098,0.354,0l6.639,6.639c0.098,0.098,0.098,0.256,0,0.354C69.017,43.615,68.953,43.639,68.889,43.639z"/><path fill="#472b29" d="M58.823,39.891c-0.132,0-0.242-0.104-0.25-0.237c-0.007-0.138,0.099-0.256,0.237-0.263 c2.027-0.106,3.835-1.228,4.833-3c0.068-0.121,0.221-0.163,0.341-0.095c0.12,0.068,0.162,0.22,0.095,0.341 c-1.083,1.922-3.043,3.138-5.243,3.254C58.832,39.891,58.827,39.891,58.823,39.891z"/><path fill="#472b29" d="M64.555,34.836c-0.015,0-0.029-0.001-0.044-0.004c-0.136-0.024-0.227-0.154-0.202-0.29 c0.079-0.442,0.106-0.897,0.082-1.352c-0.143-2.727-2.115-4.984-4.796-5.488c-0.136-0.025-0.226-0.156-0.2-0.292 c0.026-0.135,0.149-0.226,0.292-0.199c2.909,0.547,5.049,2.995,5.204,5.953c0.025,0.493-0.005,0.986-0.09,1.466 C64.779,34.751,64.674,34.836,64.555,34.836z"/><path fill="#472b29" d="M52.359,34.073c-0.132,0-0.242-0.104-0.25-0.237c-0.163-3.098,1.907-5.859,4.923-6.566 c0.134-0.031,0.27,0.052,0.3,0.186c0.032,0.135-0.052,0.269-0.187,0.301c-2.779,0.652-4.688,3.197-4.536,6.053 c0.007,0.138-0.099,0.256-0.237,0.263C52.368,34.073,52.363,34.073,52.359,34.073z"/><path fill="#472b29" d="M48.574,37.67c-0.1,0-0.194-0.06-0.232-0.158c-0.432-1.095-0.683-2.252-0.746-3.438 c-0.133-2.525,0.621-5.033,2.121-7.062c0.083-0.111,0.24-0.134,0.35-0.052c0.111,0.082,0.135,0.239,0.053,0.35 c-1.432,1.936-2.151,4.329-2.024,6.739c0.06,1.132,0.299,2.236,0.711,3.281c0.051,0.128-0.012,0.274-0.141,0.324 C48.635,37.665,48.604,37.67,48.574,37.67z"/><path fill="#472b29" d="M58.482,44.42c-1.494,0-2.942-0.3-4.315-0.895c-0.127-0.055-0.185-0.202-0.13-0.329 s0.201-0.185,0.329-0.13c1.48,0.642,3.052,0.923,4.682,0.839c2.34-0.123,4.511-0.998,6.276-2.531 c0.105-0.091,0.263-0.08,0.353,0.025c0.091,0.104,0.08,0.262-0.024,0.353c-1.852,1.606-4.126,2.523-6.579,2.653 C58.876,44.415,58.679,44.42,58.482,44.42z"/><path fill="#472b29" d="M67.101,40.065c-0.052,0-0.104-0.016-0.148-0.049c-0.111-0.082-0.135-0.238-0.053-0.349 c1.419-1.931,2.132-4.316,2.005-6.715c-0.106-2.036-0.798-3.977-1.999-5.613c-0.082-0.111-0.058-0.268,0.054-0.349 c0.108-0.082,0.267-0.058,0.349,0.053c1.26,1.715,1.984,3.749,2.097,5.882c0.132,2.514-0.614,5.013-2.103,7.037 C67.253,40.03,67.177,40.065,67.101,40.065z"/><g><path fill="#472b29" d="M51.539,25.664c-0.07,0-0.14-0.029-0.189-0.087c-0.09-0.105-0.078-0.262,0.026-0.353 c1.846-1.591,4.111-2.5,6.551-2.629c2.782-0.145,5.514,0.771,7.647,2.587c0.105,0.09,0.118,0.247,0.028,0.353 c-0.091,0.106-0.248,0.117-0.353,0.028c-2.036-1.732-4.63-2.608-7.298-2.468c-2.327,0.123-4.488,0.99-6.25,2.508 C51.655,25.644,51.597,25.664,51.539,25.664z"/></g><g><path fill="#a1a1ca" d="M25.452,64.553c-0.372-0.372-0.371-0.977,0-1.348l31.138-31.138c0.372-0.372,0.976-0.372,1.348,0 l1.605,1.605c0.372,0.372,0.371,0.977,0,1.348L28.405,66.158c-0.372,0.372-0.976,0.372-1.348,0L25.452,64.553z"/><rect width="3.632" height="11.803" x="52.558" y="31.333" fill="#f1bc19" transform="rotate(45.001 54.375 37.235)"/><path fill="#472b29" d="M59.093,34.121c0.124,0.124,0.124,0.326,0,0.449L27.955,65.708c-0.124,0.124-0.326,0.124-0.449,0 l-1.605-1.605c-0.124-0.124-0.124-0.326,0-0.449l31.138-31.138c0.124-0.124,0.326-0.124,0.449,0L59.093,34.121 M59.992,33.222 l-1.605-1.605c-0.621-0.621-1.627-0.62-2.247,0L25.002,62.755c-0.62,0.62-0.621,1.627,0,2.247l1.605,1.605 c0.621,0.62,1.627,0.62,2.247,0L59.992,35.47C60.612,34.849,60.613,33.843,59.992,33.222L59.992,33.222z"/><rect width=".5" height="3.632" x="49.951" y="39.592" fill="#472b29" transform="rotate(-45.001 50.197 41.408)"/></g></g></svg>