<svg xmlns="http://www.w3.org/2000/svg"  viewBox="0 0 100 100" width="100px" height="100px"><path fill="#ee3e54" d="M13 27A2 2 0 1 0 13 31A2 2 0 1 0 13 27Z"/><path fill="#f1bc19" d="M77 12A1 1 0 1 0 77 14A1 1 0 1 0 77 12Z"/><path fill="#fce0a2" d="M50 13A37 37 0 1 0 50 87A37 37 0 1 0 50 13Z"/><path fill="#f1bc19" d="M83 11A4 4 0 1 0 83 19A4 4 0 1 0 83 11Z"/><path fill="#ee3e54" d="M87 22A2 2 0 1 0 87 26A2 2 0 1 0 87 22Z"/><path fill="#fbcd59" d="M81 74A2 2 0 1 0 81 78 2 2 0 1 0 81 74zM15 59A4 4 0 1 0 15 67 4 4 0 1 0 15 59z"/><path fill="#ee3e54" d="M25 85A2 2 0 1 0 25 89A2 2 0 1 0 25 85Z"/><path fill="#fff" d="M18.5 51A2.5 2.5 0 1 0 18.5 56A2.5 2.5 0 1 0 18.5 51Z"/><path fill="#f1bc19" d="M21 66A1 1 0 1 0 21 68A1 1 0 1 0 21 66Z"/><path fill="#fff" d="M80 33A1 1 0 1 0 80 35A1 1 0 1 0 80 33Z"/><g><path fill="#67ba8c" d="M72.184,72.3c-0.188,0-0.316-0.211-0.346-0.419c-2.449-17.261-8.181-21.512-29.202-21.66 l-0.705-0.005v7.671c0,0.472-0.363,0.754-0.713,0.754c-0.157,0-0.303-0.057-0.434-0.168L23.491,43.757 c-0.168-0.144-0.265-0.357-0.265-0.587c0-0.229,0.097-0.442,0.266-0.586l17.292-14.717c0.13-0.111,0.276-0.167,0.434-0.167 c0.351,0,0.713,0.281,0.713,0.754v8.459l0.692,0.009c12.969,0.155,21.194,2.815,25.888,8.371 c4.659,5.516,5.973,14.245,4.017,26.688C72.499,72.163,72.351,72.3,72.184,72.3z"/><path fill="#472b29" d="M41.225,28.412c0.004,0.008,0.006,0.021,0.006,0.042v7.768v1.383l1.383,0.017 c12.75,0.153,20.809,2.734,25.361,8.123c4.222,4.998,5.602,12.784,4.199,23.755c-2.713-15.837-8.982-19.835-29.534-19.979 l-1.41-0.01v1.41v6.966c0,0.026-0.003,0.039-0.002,0.046L23.945,43.224c-0.017-0.014-0.019-0.04-0.019-0.053 s0.002-0.039,0.019-0.053L41.225,28.412 M41.218,27c-0.305,0-0.617,0.104-0.888,0.334L23.038,42.051 c-0.682,0.58-0.682,1.658,0,2.239L40.33,59.006c0.271,0.231,0.583,0.335,0.888,0.335c0.727,0,1.414-0.59,1.414-1.454v-6.966 c20.957,0.148,26.136,4.307,28.513,21.059C71.225,72.543,71.631,73,72.184,73c0.512,0,0.954-0.389,1.036-0.91 c4.204-26.742-6.566-35.58-30.588-35.868v-7.768C42.632,27.59,41.945,27,41.218,27L41.218,27z"/></g><g><path fill="#67ba8c" d="M63.307,45.744c1.523,1.02,2.855,2.25,3.893,3.733"/><path fill="#472b29" d="M67.199,49.978c-0.157,0-0.313-0.074-0.409-0.213c-0.949-1.356-2.215-2.569-3.762-3.605 c-0.229-0.153-0.291-0.464-0.137-0.693c0.152-0.229,0.463-0.292,0.693-0.137c1.649,1.104,3.004,2.404,4.023,3.861 c0.159,0.227,0.104,0.538-0.122,0.696C67.398,49.948,67.299,49.978,67.199,49.978z"/></g><g><path fill="#67ba8c" d="M54.143,42.105c2.439,0.537,4.864,1.309,7.045,2.408"/><path fill="#472b29" d="M61.188,45.013c-0.076,0-0.153-0.018-0.225-0.054c-1.967-0.99-4.297-1.787-6.927-2.366 c-0.27-0.06-0.44-0.326-0.381-0.596c0.06-0.269,0.323-0.437,0.596-0.381c2.712,0.598,5.121,1.422,7.161,2.45 c0.247,0.124,0.346,0.425,0.222,0.671C61.546,44.912,61.37,45.013,61.188,45.013z"/></g><g><path fill="#67ba8c" d="M33.745,39.023l4.182-3.136v5.227c0,0,2.798-0.267,6.73-0.133c1.103,0.037,2.294,0.106,3.538,0.221 c0.915,0.084,1.858,0.194,2.814,0.334"/><path fill="#472b29" d="M51.011,42.035c-0.024,0-0.049-0.002-0.074-0.005c-0.9-0.133-1.838-0.244-2.788-0.331 c-1.134-0.105-2.314-0.179-3.509-0.219c-3.853-0.13-6.64,0.128-6.667,0.131c-0.14,0.006-0.28-0.034-0.384-0.128 c-0.104-0.095-0.164-0.229-0.164-0.37v-4.227l-3.382,2.536c-0.221,0.165-0.535,0.119-0.7-0.101c-0.166-0.221-0.121-0.534,0.1-0.7 l4.182-3.136c0.151-0.112,0.355-0.13,0.523-0.047c0.169,0.085,0.276,0.258,0.276,0.447v4.687c1.011-0.07,3.334-0.188,6.248-0.093 c1.213,0.041,2.414,0.116,3.567,0.223c0.967,0.089,1.923,0.202,2.841,0.337c0.273,0.041,0.463,0.295,0.423,0.567 C51.468,41.856,51.254,42.035,51.011,42.035z"/></g><g><path fill="#67ba8c" d="M35.836 49.477L28.518 43.205 31.283 40.993"/><path fill="#472b29" d="M35.836,49.978c-0.115,0-0.231-0.04-0.325-0.12l-7.318-6.273c-0.113-0.098-0.177-0.239-0.175-0.389 c0.002-0.148,0.071-0.289,0.188-0.382l2.765-2.212c0.217-0.172,0.53-0.136,0.703,0.078c0.172,0.216,0.137,0.53-0.078,0.703 l-2.294,1.835l6.86,5.88c0.21,0.18,0.234,0.496,0.054,0.705C36.117,49.918,35.977,49.978,35.836,49.978z"/></g></svg>