<?xml version="1.0" encoding="iso-8859-1"?>
<!-- Generator: Adobe Illustrator 19.0.0, SVG Export Plug-In . SVG Version: 6.00 Build 0)  -->
<svg version="1.1" id="Capa_1" xmlns="http://www.w3.org/2000/svg" xmlns:xlink="http://www.w3.org/1999/xlink" x="0px" y="0px"
	 viewBox="0 0 512 512" style="enable-background:new 0 0 512 512;" xml:space="preserve">
<path style="fill:#485358;" d="M435.775,0H103.542c-9.006,0-16.307,7.301-16.307,16.307v479.386c0,9.006,7.301,16.307,16.307,16.307
	h332.233c9.006,0,16.307-7.301,16.307-16.307V16.307C452.082,7.301,444.781,0,435.775,0z"/>
<path style="opacity:0.15;enable-background:new    ;" d="M131.394,439.401V72.599c0-15.707,12.733-28.44,28.44-28.44h219.648
	c15.707,0,28.44,12.733,28.44,28.44V439.4c0,15.707-12.733,28.44-28.44,28.44H159.835
	C144.128,467.841,131.394,455.108,131.394,439.401z"/>
<path style="opacity:0.2;enable-background:new    ;" d="M379.482,44.159H159.835c-15.707,0-28.44,12.733-28.44,28.44v52.807
	h276.528V72.599C407.923,56.892,395.189,44.159,379.482,44.159z"/>
<path style="opacity:0.1;enable-background:new    ;" d="M193.388,256.686H87.235v101.436h106.152
	c9.445,0,17.102-7.657,17.102-17.102v-67.232C210.489,264.343,202.833,256.686,193.388,256.686z"/>
<path style="fill:#485358;" d="M193.388,332.326H21.807c-9.445,0-17.102-7.657-17.102-17.102v-67.232
	c0-9.445,7.657-17.102,17.102-17.102h171.581c9.445,0,17.102,7.657,17.102,17.102v67.232
	C210.489,324.669,202.833,332.326,193.388,332.326z"/>
<path style="opacity:0.35;enable-background:new    ;" d="M193.388,332.326H21.807c-9.445,0-17.102-7.657-17.102-17.102v-67.232
	c0-9.445,7.657-17.102,17.102-17.102h171.581c9.445,0,17.102,7.657,17.102,17.102v67.232
	C210.489,324.669,202.833,332.326,193.388,332.326z"/>
<g>
	<path style="fill:#F3CE72;" d="M102.123,309.384c-5.684,0-8.431-0.191-10.053-0.597c-1.73-0.433-3.249-1.467-4.285-2.918
		c-1.236-1.731-2.93-4.103-2.815-23.905c0.049-8.473,0.428-19.373,1.956-23.191c0.608-1.522,1.699-2.803,3.104-3.645
		c7.262-4.359,31.265-2.434,36.512-0.685c2.826,0.942,4.827,3.469,5.097,6.436c0.378,4.16,1.001,35.974-0.09,41.975
		c-0.648,3.566-3.754,6.158-7.379,6.158c-0.952,0-3.187,0.053-5.773,0.114C111.228,309.295,105.995,309.384,102.123,309.384z
		 M100.75,298.615L100.75,298.615L100.75,298.615z M100.22,294.381c5.003,0.037,12.45-0.125,16.862-0.229
		c0.14-7.271,0.046-19.024-0.143-26.237c-4.955-0.452-12.094-0.599-16.455-0.227C99.925,274.393,99.747,287.286,100.22,294.381z
		 M97.288,268.222L97.288,268.222L97.288,268.222z"/>
	<path style="fill:#F3CE72;" d="M149.435,309.387c-1.01,0-2.037-0.205-3.02-0.639c-3.597-1.585-5.329-5.653-4.068-9.304
		c0.863-4.735,0.072-31.14-0.395-39.037c-0.245-4.135,2.909-7.684,7.044-7.93c4.131-0.24,7.685,2.909,7.929,7.045
		c0.134,2.263,0.544,11.937,0.719,21.355c0.374,20.136-0.578,22.296-1.343,24.032C155.066,307.716,152.317,309.387,149.435,309.387z
		 M142.576,298.86c-0.001,0.003-0.003,0.006-0.003,0.009C142.574,298.866,142.575,298.863,142.576,298.86z"/>
	<path style="fill:#F3CE72;" d="M149.767,275.132c-3.225,0-6.204-2.096-7.18-5.343c-1.192-3.967,1.057-8.15,5.023-9.342
		c2.435-0.732,13.999-2.523,17.037-2.718c4.132-0.271,7.7,2.871,7.964,7.004c0.266,4.134-2.871,7.7-7.004,7.965
		c-2.43,0.156-12.125,1.73-13.763,2.14C151.151,275.037,150.453,275.132,149.767,275.132z"/>
	<path style="fill:#F3CE72;" d="M165.747,303.36c-0.302,0-0.606-0.019-0.914-0.056c-0.131-0.016-15.353-2.83-18.246-4.423
		c-3.628-1.999-4.949-6.561-2.95-10.188c1.869-3.393,5.977-4.767,9.471-3.298c2.076,0.632,11.926,2.727,13.751,3.048
		c3.997,0.603,6.814,4.281,6.324,8.32C172.721,300.568,169.485,303.36,165.747,303.36z M166.642,288.414
		c0.062,0.008,0.124,0.016,0.186,0.024C166.745,288.426,166.682,288.419,166.642,288.414z M153.819,285.74
		c0.002,0.001,0.004,0.002,0.006,0.003C153.823,285.742,153.821,285.741,153.819,285.74z"/>
	<path style="fill:#F3CE72;" d="M101.353,289.108H72.65c-4.142,0-7.5-3.357-7.5-7.5s3.358-7.5,7.5-7.5h28.703
		c4.142,0,7.5,3.357,7.5,7.5S105.496,289.108,101.353,289.108z"/>
</g>
<path style="fill:#C06376;" d="M292.179,300.689c-36.414,20.323-62.879,89.178-74.672,123.17c-1.848,5.327,4.017,10.027,8.813,7.061
	c30.6-18.925,92.023-59.776,103.911-99.747L292.179,300.689z"/>
<path style="opacity:0.1;enable-background:new    ;" d="M226.239,400.126c-3.462,8.847-6.391,16.983-8.733,23.733
	c-1.848,5.327,4.017,10.027,8.813,7.06c30.6-18.925,92.023-59.775,103.911-99.746l-18.314-14.672
	C302.15,349.337,253.716,382.847,226.239,400.126z"/>
<path style="fill:#F3CE72;" d="M468.174,83.706l35.413,28.37c4.263,3.416,4.951,9.641,1.535,13.904L340.403,331.591
	c-3.416,4.263-9.641,4.951-13.904,1.535l-35.413-28.37c-4.263-3.416-4.951-9.641-1.535-13.904L454.27,85.241
	C457.686,80.977,463.911,80.29,468.174,83.706z"/>
<rect x="296.612" y="285.95" transform="matrix(-0.7804 -0.6252 0.6252 -0.7804 402.629 728.2896)" style="fill:#485358;" width="65.157" height="14.999"/>
<path style="opacity:0.08;enable-background:new    ;" d="M484.789,109.691L320.07,315.302c-3.415,4.263-9.641,4.951-13.904,1.535
	l20.333,16.289c4.264,3.416,10.489,2.728,13.904-1.535l164.72-205.611c3.416-4.264,2.728-10.489-1.535-13.904l-20.333-16.289
	C487.518,99.202,488.205,105.427,484.789,109.691z"/>
<g>
</g>
<g>
</g>
<g>
</g>
<g>
</g>
<g>
</g>
<g>
</g>
<g>
</g>
<g>
</g>
<g>
</g>
<g>
</g>
<g>
</g>
<g>
</g>
<g>
</g>
<g>
</g>
<g>
</g>
</svg>
