<svg xmlns="http://www.w3.org/2000/svg"  viewBox="0 0 64 64" width="128px" height="128px"><g data-name="Layer 31"><rect width="18" height="10" x="1" y="13" fill="#f8c460" rx="2"/><path fill="#faaf42" d="M8,20a4,4,0,0,1-4-4V13H3a2,2,0,0,0-2,2v6a2,2,0,0,0,2,2H17a2,2,0,0,0,2-2V20Z"/><rect width="18" height="10" x="1" y="33" fill="#f8c460" rx="2"/><rect width="26" height="10" x="19" y="33" fill="#f8c460" rx="2"/><rect width="26" height="10" x="19" y="13" fill="#f8c460" rx="2"/><path fill="#faaf42" d="M26,20a4,4,0,0,1-4-4V13H21a2,2,0,0,0-2,2v6a2,2,0,0,0,2,2H43a2,2,0,0,0,2-2V20Z"/><path fill="#faaf42" d="M8,40a4,4,0,0,1-4-4V33H3a2,2,0,0,0-2,2v6a2,2,0,0,0,2,2H17a2,2,0,0,0,2-2V40Z"/><path fill="#faaf42" d="M26,40a4,4,0,0,1-4-4V33H21a2,2,0,0,0-2,2v6a2,2,0,0,0,2,2H43a2,2,0,0,0,2-2V40Z"/><rect width="18" height="10" x="45" y="33" fill="#f8c460" rx="2"/><path fill="#faaf42" d="M52,40a4,4,0,0,1-4-4V33H47a2,2,0,0,0-2,2v6a2,2,0,0,0,2,2H61a2,2,0,0,0,2-2V40Z"/><rect width="9" height="10" x="1" y="23" fill="#f8c460" rx="2"/><path fill="#faaf42" d="M8,30a4,4,0,0,1-4-4V23H3a2,2,0,0,0-2,2v6a2,2,0,0,0,2,2H8a2,2,0,0,0,2-2V30Z"/><rect width="26" height="10" x="10" y="23" fill="#f8c460" rx="2"/><path fill="#faaf42" d="M17,30a4,4,0,0,1-4-4V23H12a2,2,0,0,0-2,2v6a2,2,0,0,0,2,2H34a2,2,0,0,0,2-2V30Z"/><rect width="18" height="10" x="1" y="53" fill="#f8c460" rx="2"/><rect width="26" height="10" x="19" y="53" fill="#f8c460" rx="2"/><rect width="18" height="10" x="45" y="53" fill="#f8c460" rx="2"/><path fill="#faaf42" d="M8,60a4,4,0,0,1-4-4V53H3a2,2,0,0,0-2,2v6a2,2,0,0,0,2,2H17a2,2,0,0,0,2-2V60Z"/><path fill="#faaf42" d="M26,60a4,4,0,0,1-4-4V53H21a2,2,0,0,0-2,2v6a2,2,0,0,0,2,2H43a2,2,0,0,0,2-2V60Z"/><path fill="#faaf42" d="M52,60a4,4,0,0,1-4-4V53H47a2,2,0,0,0-2,2v6a2,2,0,0,0,2,2H61a2,2,0,0,0,2-2V60Z"/><rect width="9" height="10" x="1" y="43" fill="#f8c460" rx="2"/><rect width="26" height="10" x="10" y="43" fill="#f8c460" rx="2"/><rect width="9" height="10" x="54" y="43" fill="#f8c460" rx="2"/><rect width="18" height="10" x="36" y="43" fill="#f8c460" rx="2"/><rect width="18" height="10" x="36" y="23" fill="#f8c460" rx="2"/><path fill="#faaf42" d="M43,30a4,4,0,0,1-4-4V23H38a2,2,0,0,0-2,2v6a2,2,0,0,0,2,2H52a2,2,0,0,0,2-2V30Z"/><path fill="#faaf42" d="M8,50a4,4,0,0,1-4-4V43H3a2,2,0,0,0-2,2v6a2,2,0,0,0,2,2H8a2,2,0,0,0,2-2V50Z"/><path fill="#faaf42" d="M61,50a4,4,0,0,1-4-4V43H56a2,2,0,0,0-2,2v6a2,2,0,0,0,2,2h5a2,2,0,0,0,2-2V50Z"/><path fill="#faaf42" d="M17,50a4,4,0,0,1-4-4V43H12a2,2,0,0,0-2,2v6a2,2,0,0,0,2,2H34a2,2,0,0,0,2-2V50Z"/><path fill="#faaf42" d="M43,50a4,4,0,0,1-4-4V43H38a2,2,0,0,0-2,2v6a2,2,0,0,0,2,2H52a2,2,0,0,0,2-2V50Z"/><path fill="#faaf42" d="M53.562,27.771l-1.448,1.448-4.343-4.344L49.646,23H38a2,2,0,0,0-2,2v6a2,2,0,0,0,2,2h1.449a4.132,4.132,0,0,0,.848-.651L44.151,28.5a1.024,1.024,0,0,1,1.448,0l2.9,2.895a1.025,1.025,0,0,1,0,1.448.952.952,0,0,0-.108.162H52a2,2,0,0,0,2-2V28.209Z"/><path fill="#faaf42" d="M43,13H25.077l4.737,10H43a2,2,0,0,0,2-2V15A2,2,0,0,0,43,13Z"/><path fill="#e6e6e6" d="M53.349,17.3,41.3,29.349a4.1,4.1,0,0,1-6.6-1.143L25.394,8.558A4.1,4.1,0,0,1,26.2,3.909l1.71-1.71a4.1,4.1,0,0,1,4.649-.8L52.206,10.7A4.1,4.1,0,0,1,53.349,17.3Z"/><path fill="#faaf42" d="M34,23H29.814L33.7,31.206a4.068,4.068,0,0,0,1.259,1.538A1.99,1.99,0,0,0,36,31V25A2,2,0,0,0,34,23Z"/><path fill="#faaf42" d="M60.637,34.846,58.791,33h-10.4a1.01,1.01,0,0,0,.108,1.286L55.01,40.8a4.1,4.1,0,0,0,5.942-.16A4.251,4.251,0,0,0,60.637,34.846Z"/><path fill="#fff" d="M38,7.185a1,1,0,0,1-.428-.1L35.07,5.9A1,1,0,1,1,35.926,4.1l2.5,1.185A1,1,0,0,1,38,7.185Z"/><path fill="#cecece" d="M54.349,13.3,46.216,21.43A8,8,0,0,1,33.329,19.2L26.394,4.558a4.062,4.062,0,0,1-.23-.607,4.092,4.092,0,0,0-.77,4.607L34.7,28.206a4.1,4.1,0,0,0,6.6,1.143L53.349,17.3a4.074,4.074,0,0,0,1.035-4.04C54.372,13.27,54.362,13.285,54.349,13.3Z"/><path fill="#7a838b" d="M53.114,26.219l-2.895,2.895L42.98,21.875a2.046,2.046,0,0,1,0-2.895h0a2.046,2.046,0,0,1,2.9,0Z"/><path fill="#e6e6e6" d="M61.8,37.8h0a4.1,4.1,0,0,1-5.791,0l-7.239-7.239,5.791-5.791L61.8,32.01A4.1,4.1,0,0,1,61.8,37.8Z"/><path fill="#cecece" d="M61.8,34.8a4.1,4.1,0,0,1-5.791,0l-5.739-5.739-1.5,1.5L56.01,37.8a4.093,4.093,0,0,0,6.7-4.4A4.074,4.074,0,0,1,61.8,34.8Z"/><rect width="4.095" height="2.121" x="48.869" y="25.856" fill="#5d6972" transform="rotate(-45 50.916 26.917)"/><path fill="#fff" d="M17,16H15a1,1,0,0,1,0-2h2a1,1,0,0,1,0,2Z"/><path fill="#fff" d="M39,36H37a1,1,0,0,1,0-2h2a1,1,0,0,1,0,2Z"/></g></svg>